<svg width="40" height="40" viewBox="0 0 40 40" fill="none" xmlns="http://www.w3.org/2000/svg">
<path d="M30.2194 4.28571H13.4521C11.7788 4.28571 10.174 4.94738 8.99078 6.12515C7.80755 7.30293 7.14282 8.90035 7.14282 10.566C7.14219 11.4905 7.34703 12.4037 7.74266 13.2401C8.13829 14.0765 8.71491 14.8155 9.4312 15.404C10.0589 15.9332 10.5292 16.6231 10.7913 17.3992C11.0534 18.1754 11.0972 19.008 10.918 19.8072L8.32493 31.7881C8.21822 32.2845 8.31363 32.8027 8.59024 33.2292C8.86685 33.6557 9.30209 33.9556 9.8005 34.0631L17.3073 35.6716C17.8061 35.7782 18.3269 35.6833 18.7555 35.4079C19.184 35.1326 19.4852 34.6991 19.5929 34.2028L22.7757 19.4902C22.9383 18.7414 23.3534 18.0707 23.9521 17.5894C24.5508 17.1081 25.297 16.8453 26.0665 16.8447H30.2194C30.7295 16.8447 31.2188 16.643 31.5795 16.284C31.9402 15.9249 32.1428 15.4379 32.1428 14.9302V6.2C32.1428 5.69227 31.9401 5.20537 31.5794 4.84637C31.2187 4.48738 30.7295 4.28571 30.2194 4.28571V4.28571Z" fill="black"/>
<path d="M28.2411 19.0051H26.416C26.1258 19.0042 25.844 19.1027 25.6182 19.2841C25.3923 19.4656 25.2361 19.7189 25.1758 20.0015L24.1487 24.753C24.526 25.0654 24.9289 25.3459 25.3532 25.5915C25.6802 25.7852 26.0552 25.8835 26.4355 25.8753C26.8159 25.8671 27.1863 25.7527 27.5045 25.5451C27.8227 25.3375 28.0759 25.0451 28.2352 24.7012C28.3945 24.3572 28.4535 23.9757 28.4055 23.6C28.2361 22.0746 28.1811 20.5387 28.2411 19.0051Z" fill="black"/>
</svg>
