<svg width="40" height="40" viewBox="0 0 40 40" fill="none" xmlns="http://www.w3.org/2000/svg">
<path fill-rule="evenodd" clip-rule="evenodd" d="M36 26V10C36 7.79086 34.2091 6 32 6H8C5.79086 6 4 7.79086 4 10V26C4 28.2091 5.79086 30 8 30H14L20 36L26 30H32C34.2091 30 36 28.2091 36 26ZM10 14C10 12.8954 10.8954 12 12 12H28C29.1046 12 30 12.8954 30 14C30 15.1046 29.1046 16 28 16H12C10.8954 16 10 15.1046 10 14ZM12 20C10.8954 20 10 20.8954 10 22C10 23.1046 10.8954 24 12 24H18C19.1046 24 20 23.1046 20 22C20 20.8954 19.1046 20 18 20H12Z" fill="black"/>
</svg>
