<svg width="40" height="40" viewBox="0 0 40 40" fill="none" xmlns="http://www.w3.org/2000/svg">
<path fill-rule="evenodd" clip-rule="evenodd" d="M13.4142 9.75736C14.5394 8.63214 16.0656 8 17.6569 8H30C33.3137 8 36 10.6863 36 14V26C36 29.3137 33.3137 32 30 32H17.6569C16.0656 32 14.5394 31.3679 13.4142 30.2426L4.58579 21.4142C4.21071 21.0391 4 20.5304 4 20C4 19.4696 4.21071 18.9609 4.58579 18.5858L13.4142 9.75736ZM21.4142 14.5858C20.6332 13.8047 19.3668 13.8047 18.5858 14.5858C17.8047 15.3668 17.8047 16.6332 18.5858 17.4142L21.1716 20L18.5858 22.5858C17.8047 23.3668 17.8047 24.6332 18.5858 25.4142C19.3668 26.1953 20.6332 26.1953 21.4142 25.4142L24 22.8284L26.5858 25.4142C27.3668 26.1953 28.6332 26.1953 29.4142 25.4142C30.1953 24.6332 30.1953 23.3668 29.4142 22.5858L26.8284 20L29.4142 17.4142C30.1953 16.6332 30.1953 15.3668 29.4142 14.5858C28.6332 13.8047 27.3668 13.8047 26.5858 14.5858L24 17.1716L21.4142 14.5858Z" fill="#DD1D21"/>
</svg>
