<svg width="40" height="40" viewBox="0 0 40 40" fill="none" xmlns="http://www.w3.org/2000/svg">
<path d="M25.0001 28.3333H33.3334L30.9919 25.9918C30.3568 25.3568 30.0001 24.4955 30.0001 23.5974V18.3333C30.0001 13.9793 27.2174 10.2751 23.3334 8.90236V8.33333C23.3334 6.49238 21.841 5 20.0001 5C18.1591 5 16.6667 6.49238 16.6667 8.33333V8.90236C12.7828 10.2751 10.0001 13.9793 10.0001 18.3333V23.5974C10.0001 24.4955 9.64333 25.3568 9.0083 25.9918L6.66675 28.3333H15.0001M25.0001 28.3333V30C25.0001 32.7614 22.7615 35 20.0001 35C17.2387 35 15.0001 32.7614 15.0001 30V28.3333M25.0001 28.3333H15.0001" stroke="black" stroke-width="3.40171" stroke-linecap="round" stroke-linejoin="round"/>
</svg>
