<svg width="40" height="40" viewBox="0 0 40 40" fill="none" xmlns="http://www.w3.org/2000/svg">
<path d="M31.2 7.2H32.8C33.6 7.2 34.4 8 34.4 8.8V16.48C32.16 14.72 29.44 13.6 26.4 13.6C19.36 13.6 13.6 19.36 13.6 26.4C13.6 28.64 14.24 30.88 15.36 32.8H5.6C4.8 32.8 4 32.16 4 31.2V8.8C4 7.84 4.8 7.2 5.6 7.2H8.8V5.6C8.8 4.64 9.44 4 10.4 4C11.36 4 12 4.64 12 5.6V7.2H28V5.6C28 4.64 28.64 4 29.6 4C30.56 4 31.2 4.64 31.2 5.6V7.2Z" fill="black"/>
<path fill-rule="evenodd" clip-rule="evenodd" d="M16.8 26.4C16.8 21.12 21.12 16.8 26.4 16.8C31.68 16.8 36 21.12 36 26.4C36 31.68 31.68 36 26.4 36C21.12 36 16.8 31.68 16.8 26.4ZM26.4 28H29.6C30.56 28 31.2 27.36 31.2 26.4C31.2 25.44 30.56 24.8 29.6 24.8H28V21.6C28 20.64 27.36 20 26.4 20C25.44 20 24.8 20.64 24.8 21.6V26.4C24.8 27.36 25.44 28 26.4 28Z" fill="black"/>
</svg>
