<svg width="40" height="40" viewBox="0 0 40 40" fill="none" xmlns="http://www.w3.org/2000/svg">
<path fill-rule="evenodd" clip-rule="evenodd" d="M13.3333 3C14.4379 3 15.3333 3.89543 15.3333 5V6.33333H24.6667V5C24.6667 3.89543 25.5621 3 26.6667 3C27.7712 3 28.6667 3.89543 28.6667 5V6.33333H31.6667C34.6122 6.33333 37 8.72115 37 11.6667V31.6667C37 34.6122 34.6122 37 31.6667 37H8.33333C5.38781 37 3 34.6122 3 31.6667V11.6667C3 8.72115 5.38781 6.33333 8.33333 6.33333H11.3333V5C11.3333 3.89543 12.2288 3 13.3333 3ZM11.3333 10.3333H8.33333C7.59695 10.3333 7 10.9303 7 11.6667V31.6667C7 32.403 7.59695 33 8.33333 33H31.6667C32.403 33 33 32.403 33 31.6667V11.6667C33 10.9303 32.403 10.3333 31.6667 10.3333H28.6667V11.6667C28.6667 12.7712 27.7712 13.6667 26.6667 13.6667C25.5621 13.6667 24.6667 12.7712 24.6667 11.6667V10.3333H15.3333V11.6667C15.3333 12.7712 14.4379 13.6667 13.3333 13.6667C12.2288 13.6667 11.3333 12.7712 11.3333 11.6667V10.3333ZM9.66667 18.3333C9.66667 17.2288 10.5621 16.3333 11.6667 16.3333H28.3333C29.4379 16.3333 30.3333 17.2288 30.3333 18.3333C30.3333 19.4379 29.4379 20.3333 28.3333 20.3333H11.6667C10.5621 20.3333 9.66667 19.4379 9.66667 18.3333Z" fill="black"/>
</svg>
