<svg width="40" height="40" viewBox="0 0 40 40" fill="none" xmlns="http://www.w3.org/2000/svg">
<path d="M31 6.5H29.375V5.25C29.375 4.55963 28.8154 4 28.125 4C27.4346 4 26.875 4.55963 26.875 5.25V6.5H21.1875V5.25C21.1875 4.55963 20.6279 4 19.9375 4C19.2471 4 18.6875 4.55963 18.6875 5.25V6.5H13.0625V5.25C13.0625 4.55963 12.5029 4 11.8125 4C11.1221 4 10.5625 4.55963 10.5625 5.25V6.5H9C6.243 6.5 4 8.743 4 11.5V31C4 33.757 6.243 36 9 36H18.5625C19.2529 36 19.8125 35.4404 19.8125 34.75C19.8125 34.0596 19.2529 33.5 18.5625 33.5H9C7.6215 33.5 6.5 32.3785 6.5 31V11.5C6.5 10.1215 7.6215 9 9 9H10.5625V10.25C10.5625 10.9404 11.1221 11.5 11.8125 11.5C12.5029 11.5 13.0625 10.9404 13.0625 10.25V9H18.6875V10.25C18.6875 10.9404 19.2471 11.5 19.9375 11.5C20.6279 11.5 21.1875 10.9404 21.1875 10.25V9H26.875V10.25C26.875 10.9404 27.4346 11.5 28.125 11.5C28.8154 11.5 29.375 10.9404 29.375 10.25V9H31C32.3785 9 33.5 10.1215 33.5 11.5V18.625C33.5 19.3154 34.0596 19.875 34.75 19.875C35.4404 19.875 36 19.3154 36 18.625V11.5C36 8.743 33.757 6.5 31 6.5Z" fill="black"/>
<path d="M28.125 18.375C28.8154 18.375 29.375 17.8154 29.375 17.125C29.375 16.4346 28.8154 15.875 28.125 15.875C27.4346 15.875 26.875 16.4346 26.875 17.125C26.875 17.8154 27.4346 18.375 28.125 18.375Z" fill="black"/>
<path d="M30.25 27.1875H29.6875V25.875C29.6875 25.1846 29.1279 24.625 28.4375 24.625C27.7471 24.625 27.1875 25.1846 27.1875 25.875V28.4375C27.1875 29.1279 27.7471 29.6875 28.4375 29.6875H30.25C30.9404 29.6875 31.5 29.1279 31.5 28.4375C31.5 27.7471 30.9404 27.1875 30.25 27.1875Z" fill="black"/>
<path fill-rule="evenodd" clip-rule="evenodd" d="M20.875 28.4375C20.875 24.2675 24.2675 20.875 28.4375 20.875C32.6075 20.875 36 24.2675 36 28.4375C36 32.6075 32.6075 36 28.4375 36C24.2675 36 20.875 32.6075 20.875 28.4375ZM23.375 28.4375C23.375 31.229 25.6461 33.5 28.4375 33.5C31.2289 33.5 33.5 31.229 33.5 28.4375C33.5 25.646 31.2289 23.375 28.4375 23.375C25.6461 23.375 23.375 25.646 23.375 28.4375Z" fill="black"/>
<path d="M23.9375 17.125C23.9375 17.8154 23.3779 18.375 22.6875 18.375C21.9971 18.375 21.4375 17.8154 21.4375 17.125C21.4375 16.4346 21.9971 15.875 22.6875 15.875C23.3779 15.875 23.9375 16.4346 23.9375 17.125Z" fill="black"/>
<path d="M17.25 23.8125C17.9404 23.8125 18.5 23.2529 18.5 22.5625C18.5 21.8721 17.9404 21.3125 17.25 21.3125C16.5596 21.3125 16 21.8721 16 22.5625C16 23.2529 16.5596 23.8125 17.25 23.8125Z" fill="black"/>
<path d="M13.0625 17.125C13.0625 17.8154 12.5029 18.375 11.8125 18.375C11.1221 18.375 10.5625 17.8154 10.5625 17.125C10.5625 16.4346 11.1221 15.875 11.8125 15.875C12.5029 15.875 13.0625 16.4346 13.0625 17.125Z" fill="black"/>
<path d="M11.8125 23.8125C12.5029 23.8125 13.0625 23.2529 13.0625 22.5625C13.0625 21.8721 12.5029 21.3125 11.8125 21.3125C11.1221 21.3125 10.5625 21.8721 10.5625 22.5625C10.5625 23.2529 11.1221 23.8125 11.8125 23.8125Z" fill="black"/>
<path d="M13.0625 28C13.0625 28.6904 12.5029 29.25 11.8125 29.25C11.1221 29.25 10.5625 28.6904 10.5625 28C10.5625 27.3096 11.1221 26.75 11.8125 26.75C12.5029 26.75 13.0625 27.3096 13.0625 28Z" fill="black"/>
<path d="M17.25 29.25C17.9404 29.25 18.5 28.6904 18.5 28C18.5 27.3096 17.9404 26.75 17.25 26.75C16.5596 26.75 16 27.3096 16 28C16 28.6904 16.5596 29.25 17.25 29.25Z" fill="black"/>
<path d="M18.5 17.125C18.5 17.8154 17.9404 18.375 17.25 18.375C16.5596 18.375 16 17.8154 16 17.125C16 16.4346 16.5596 15.875 17.25 15.875C17.9404 15.875 18.5 16.4346 18.5 17.125Z" fill="black"/>
</svg>
