<svg width="40" height="40" viewBox="0 0 40 40" fill="none" xmlns="http://www.w3.org/2000/svg">
<path d="M6 2C4.89543 2 4 2.89543 4 4C4 5.10457 4.89543 6 6 6H8.43845L9.04957 8.44448C9.05598 8.47275 9.06299 8.50079 9.07059 8.52858L11.7851 19.3864L9.9999 21.1716C7.48005 23.6914 9.2647 28 12.8283 28H29.9999C31.1045 28 31.9999 27.1046 31.9999 26C31.9999 24.8954 31.1045 24 29.9999 24L12.8283 24L14.8283 22H28C28.7575 22 29.4501 21.572 29.7889 20.8944L35.7889 8.89443C36.0988 8.27445 36.0657 7.53817 35.7013 6.94854C35.3369 6.3589 34.6932 6 34 6H12.5616L11.9403 3.51493C11.7177 2.62459 10.9177 2 10 2H6Z" fill="black"/>
<path d="M32 33C32 34.6569 30.6569 36 29 36C27.3431 36 26 34.6569 26 33C26 31.3431 27.3431 30 29 30C30.6569 30 32 31.3431 32 33Z" fill="black"/>
<path d="M13 36C14.6569 36 16 34.6569 16 33C16 31.3431 14.6569 30 13 30C11.3431 30 10 31.3431 10 33C10 34.6569 11.3431 36 13 36Z" fill="black"/>
</svg>
