<svg width="40" height="40" viewBox="0 0 40 40" fill="none" xmlns="http://www.w3.org/2000/svg">
<path d="M33.091 6H6.90912C5.3018 6 4 7.25304 4 8.80002V25.6C4 27.147 5.3018 28.4 6.90912 28.4H17.0909V31.2H12.5818C11.8086 31.2 11.1818 31.8268 11.1818 32.6C11.1818 33.3732 11.8086 34 12.5818 34H27.4182C28.1914 34 28.8182 33.3732 28.8182 32.6C28.8182 31.8268 28.1914 31.2 27.4182 31.2H22.9091V28.4H33.0909C34.6981 28.4 36 27.147 36 25.5999V8.80002C36 7.25304 34.6982 6 33.091 6ZM33.091 25.6H6.90912V8.80002H33.091V25.6Z" fill="black"/>
</svg>
