<svg width="40" height="40" viewBox="0 0 40 40" fill="none" xmlns="http://www.w3.org/2000/svg">
<path fill-rule="evenodd" clip-rule="evenodd" d="M9.00012 9C7.89555 9 7.00012 9.89543 7.00012 11V25C7.00012 26.1046 7.89555 27 9.00012 27H35.0001C36.1047 27 37.0001 26.1046 37.0001 25V11C37.0001 9.89543 36.1047 9 35.0001 9H9.00012ZM22.0001 23C24.7615 23 27.0001 20.7614 27.0001 18C27.0001 15.2386 24.7615 13 22.0001 13C19.2387 13 17.0001 15.2386 17.0001 18C17.0001 20.7614 19.2387 23 22.0001 23Z" fill="black"/>
<path d="M5.00011 17.7899L3.94536 18.0419C2.87103 18.2986 2.20819 19.3776 2.46488 20.4519L5.25346 32.1234C5.51014 33.1978 6.58914 33.8606 7.66347 33.6039L26.933 29H8.00011C6.34326 29 5.00011 27.6569 5.00011 26V17.7899Z" fill="black"/>
</svg>
