<svg width="40" height="40" viewBox="0 0 40 40" fill="none" xmlns="http://www.w3.org/2000/svg">
<path d="M15.6484 16.2699C21.1706 16.2699 25.2969 14.0869 25.2969 12.1349C25.2969 10.1831 21.1705 8 15.6484 8C10.1263 8 6.00009 10.1831 6.00009 12.1349C6.00009 14.0869 10.1263 16.2699 15.6484 16.2699Z" fill="black"/>
<path d="M15.6484 29.8104C16.4544 29.8104 17.2302 29.7635 17.9681 29.6781C17.3461 28.8787 16.8317 27.9917 16.4464 27.039C16.1816 27.0479 15.9159 27.0541 15.6484 27.0541C12.493 27.0541 9.50479 26.4288 7.23447 25.2936C6.78744 25.0701 6.37607 24.83 6.00009 24.5757V25.6755C6.00009 27.6273 10.1263 29.8104 15.6484 29.8104Z" fill="black"/>
<path d="M15.7328 25.2963L15.6953 25.2966L15.6484 25.2969C10.1263 25.2969 6.00009 23.1138 6 21.1619V20.0623C6.37598 20.3164 6.78744 20.5565 7.23456 20.78C9.50497 21.9152 12.4931 22.5405 15.6484 22.5405C15.6626 22.5405 15.6766 22.5402 15.6906 22.54C15.7047 22.5397 15.7187 22.5395 15.7328 22.5395C15.6762 22.9909 15.6468 23.4508 15.6468 23.9175C15.6468 24.3844 15.6763 24.8445 15.7328 25.2963Z" fill="black"/>
<path d="M15.6484 20.7832C15.922 20.7832 16.1918 20.7777 16.4582 20.7672C16.8861 19.7174 17.4709 18.7477 18.1839 17.8878C17.3584 17.9788 16.5101 18.027 15.6484 18.027C12.4931 18.027 9.50497 17.4018 7.23456 16.2666C6.78744 16.043 6.37598 15.8029 6 15.5487V16.6484C6.00009 18.6003 10.1263 20.7832 15.6484 20.7832Z" fill="black"/>
<path d="M18.6165 22.4929C18.8192 21.4337 19.2314 20.448 19.8083 19.5807C21.0075 17.7781 22.9175 16.4876 25.1351 16.1125C25.5705 16.0389 26.0175 16 26.4734 16C30.8846 16 34.4734 19.5887 34.4734 24C34.4734 28.4112 30.8846 32 26.4734 32C24.399 32 22.5066 31.2062 21.0837 29.9066C20.399 29.2812 19.8232 28.5386 19.388 27.7109C18.9733 26.9222 18.6864 26.0564 18.5551 25.1408C18.5017 24.7681 18.4734 24.3873 18.4734 24C18.4734 23.4849 18.5229 22.9812 18.6165 22.4929Z" fill="black"/>
</svg>
