<svg width="40" height="40" viewBox="0 0 40 40" fill="none" xmlns="http://www.w3.org/2000/svg">
<g clip-path="url(#clip0_1_1073)">
<path d="M35.6139 36.2526C29.4932 41.2491 10.3816 41.2491 4.38583 36.2526C-1.73487 31.2561 -1.11032 9.8961 4.38583 4.27505C9.88199 -1.346 30.1178 -1.346 35.6139 4.27505C41.1101 9.8961 41.7346 31.2562 35.6139 36.2526Z" fill="#A5D542"/>
<path d="M17.1269 31.1312C16.2525 31.1312 15.3782 30.7565 14.8785 30.007L7.88346 21.0133C6.88414 19.7642 7.13401 18.0155 8.38311 17.0162C9.63222 16.0168 11.381 16.2667 12.3803 17.5158L17.1269 23.6365L27.6196 10.0211C28.6189 8.77201 30.3677 8.52214 31.6168 9.52146C32.8659 10.5208 33.1157 12.2695 32.1164 13.5186L19.3753 30.007C18.7508 30.6316 18.0013 31.1312 17.1269 31.1312Z" fill="white"/>
</g>
<defs>
<clipPath id="clip0_1_1073">
<rect width="40" height="40" fill="white"/>
</clipPath>
</defs>
</svg>
