<svg width="40" height="40" viewBox="0 0 40 40" fill="none" xmlns="http://www.w3.org/2000/svg">
<path fill-rule="evenodd" clip-rule="evenodd" d="M19.75 38.5C30.1053 38.5 38.5 30.1053 38.5 19.75C38.5 9.39466 30.1053 1 19.75 1C9.39466 1 1 9.39466 1 19.75C1 30.1053 9.39466 38.5 19.75 38.5ZM14.6742 14.6742C15.4064 13.9419 16.5936 13.9419 17.3258 14.6742L19.75 17.0984L22.1742 14.6742C22.9064 13.9419 24.0936 13.9419 24.8258 14.6742C25.5581 15.4064 25.5581 16.5936 24.8258 17.3258L22.4016 19.75L24.8258 22.1742C25.5581 22.9064 25.5581 24.0936 24.8258 24.8258C24.0936 25.5581 22.9064 25.5581 22.1742 24.8258L19.75 22.4016L17.3258 24.8258C16.5936 25.5581 15.4064 25.5581 14.6742 24.8258C13.9419 24.0936 13.9419 22.9064 14.6742 22.1742L17.0984 19.75L14.6742 17.3258C13.9419 16.5936 13.9419 15.4064 14.6742 14.6742Z" fill="#DE350B"/>
</svg>
