<svg width="40" height="40" viewBox="0 0 40 40" fill="none" xmlns="http://www.w3.org/2000/svg">
<path fill-rule="evenodd" clip-rule="evenodd" d="M24.6325 6.10263C25.6803 6.45192 26.2467 7.58456 25.8974 8.63245L17.8974 32.6324C17.5481 33.6803 16.4154 34.2467 15.3675 33.8974C14.3197 33.5481 13.7533 32.4154 14.1026 31.3675L22.1026 7.36754C22.4519 6.31965 23.5846 5.75333 24.6325 6.10263ZM11.4142 12.5858C12.1953 13.3668 12.1953 14.6332 11.4142 15.4142L6.82843 20L11.4142 24.5858C12.1953 25.3668 12.1953 26.6332 11.4142 27.4142C10.6332 28.1953 9.36684 28.1953 8.58579 27.4142L2.58579 21.4142C1.80474 20.6332 1.80474 19.3668 2.58579 18.5858L8.58579 12.5858C9.36684 11.8047 10.6332 11.8047 11.4142 12.5858ZM28.5858 12.5858C29.3668 11.8047 30.6332 11.8047 31.4142 12.5858L37.4142 18.5858C38.1953 19.3668 38.1953 20.6332 37.4142 21.4142L31.4142 27.4142C30.6332 28.1953 29.3668 28.1953 28.5858 27.4142C27.8047 26.6332 27.8047 25.3668 28.5858 24.5858L33.1716 20L28.5858 15.4142C27.8047 14.6332 27.8047 13.3668 28.5858 12.5858Z" fill="black"/>
</svg>
