<svg width="40" height="40" viewBox="0 0 40 40" fill="none" xmlns="http://www.w3.org/2000/svg">
<path fill-rule="evenodd" clip-rule="evenodd" d="M35.5562 16.4437C26.9647 7.85212 13.035 7.85212 4.44351 16.4437C3.66246 17.2247 2.39613 17.2247 1.61508 16.4437C0.834035 15.6626 0.834035 14.3963 1.61508 13.6152C11.7687 3.46159 28.231 3.46159 38.3846 13.6152C39.1657 14.3963 39.1657 15.6626 38.3846 16.4437C37.6036 17.2247 36.3373 17.2247 35.5562 16.4437ZM29.8994 22.1005C24.432 16.6332 15.5677 16.6332 10.1004 22.1005C9.31932 22.8816 8.05299 22.8816 7.27194 22.1005C6.49089 21.3195 6.49089 20.0531 7.27194 19.2721C14.3014 12.2427 25.6983 12.2427 32.7278 19.2721C33.5088 20.0531 33.5088 21.3195 32.7278 22.1005C31.9467 22.8816 30.6804 22.8816 29.8994 22.1005ZM24.2425 27.7574C21.8994 25.4142 18.1004 25.4142 15.7572 27.7574C14.9762 28.5384 13.7098 28.5384 12.9288 27.7574C12.1477 26.9763 12.1477 25.71 12.9288 24.929C16.834 21.0237 23.1657 21.0237 27.0709 24.929C27.852 25.71 27.852 26.9763 27.0709 27.7574C26.2899 28.5384 25.0235 28.5384 24.2425 27.7574ZM17.9999 32C17.9999 30.8955 18.8953 30 19.9999 30H20.0199C21.1244 30 22.0199 30.8955 22.0199 32C22.0199 33.1046 21.1244 34 20.0199 34H19.9999C18.8953 34 17.9999 33.1046 17.9999 32Z" fill="black"/>
<circle cx="20" cy="31.5" r="2.5" fill="black"/>
</svg>
