<svg width="40" height="40" viewBox="0 0 40 40" fill="none" xmlns="http://www.w3.org/2000/svg">
<path d="M22 34C22 34.6932 22.3589 35.3369 22.9485 35.7013C23.5382 36.0657 24.2745 36.0988 24.8944 35.7889L32.8944 31.7889C33.572 31.4501 34 30.7575 34 30V18.4721C34 17.779 33.6411 17.1352 33.0515 16.7708C32.4618 16.4064 31.7255 16.3733 31.1056 16.6833L23.1056 20.6833C22.428 21.0221 22 21.7146 22 22.4721V34Z" fill="black"/>
<path d="M30.4223 12.5528C31.0999 12.214 31.5279 11.5215 31.5279 10.7639C31.5279 10.0064 31.0999 9.31386 30.4223 8.97508L20.8944 4.21115C20.3314 3.92962 19.6686 3.92962 19.1056 4.21115L9.57771 8.97508C8.90014 9.31386 8.47214 10.0064 8.47214 10.7639C8.47214 11.5215 8.90014 12.214 9.57771 12.5528L19.1056 17.3167C19.6686 17.5982 20.3314 17.5982 20.8944 17.3167L30.4223 12.5528Z" fill="black"/>
<path d="M8.89443 16.6833C8.27445 16.3733 7.53817 16.4064 6.94854 16.7708C6.3589 17.1352 6 17.779 6 18.4721V30C6 30.7575 6.428 31.4501 7.10557 31.7889L15.1056 35.7889C15.7255 36.0988 16.4618 36.0657 17.0515 35.7013C17.6411 35.3369 18 34.6932 18 34V22.4721C18 21.7146 17.572 21.0221 16.8944 20.6833L8.89443 16.6833Z" fill="black"/>
</svg>
