<svg width="40" height="40" viewBox="0 0 40 40" fill="none" xmlns="http://www.w3.org/2000/svg">
<circle cx="20" cy="20" r="16" stroke="black" stroke-width="2"/>
<path d="M18.7915 27.8374V29.8913C19.0512 29.9632 19.2528 30 19.9613 30C20.6692 30 20.9475 29.9631 21.2067 29.8913V27.8374C22.5703 27.6212 23.8829 27.1126 24.73 26.311C25.5759 25.5105 26 24.5133 26 23.3248C26 21.1635 24.7989 19.6052 22.3969 18.6504L20.0122 17.7044C19.5977 17.5419 19.2953 17.3895 19.1051 17.2445C18.915 17.1007 18.819 16.9027 18.819 16.6502C18.819 15.9654 19.2857 15.623 20.2185 15.623C21.152 15.623 22.4814 15.9835 24.2098 16.7033C24.6243 16.3434 24.9615 15.8617 25.2212 15.2581C25.4804 14.6544 25.6094 14.0465 25.6094 13.4335C23.9164 12.6912 22.4226 12.4156 21.1964 12.2713V10.1356C20.8685 10.045 20.7034 10 20.0634 10C19.4251 10 19.1269 10.045 18.8006 10.1356V12.2976C17.6079 12.5319 16.5694 12.8981 15.723 13.8922C15.0049 14.7357 14.6221 15.7298 14.6221 16.9195C14.6221 18.9015 15.7793 20.3518 18.095 21.2709L20.5571 22.1901C21.3345 22.4963 21.7227 22.9293 21.7227 23.4873C21.7227 23.8472 21.5763 24.1221 21.2824 24.3114C20.989 24.5001 20.5919 24.5944 20.091 24.5944C18.8119 24.5944 17.2744 24.099 15.4776 23.1079C15.0972 23.3785 14.7601 23.8327 14.4668 24.4732C14.1728 25.113 14.0168 25.6942 14 26.2165C15.9779 27.4626 16.9084 27.5675 18.7915 27.8374Z" fill="black"/>
</svg>
