<svg width="40" height="40" viewBox="0 0 40 40" fill="none" xmlns="http://www.w3.org/2000/svg">
<path fill-rule="evenodd" clip-rule="evenodd" d="M10 7C8.89543 7 8 7.89543 8 9C8 10.1046 8.89543 11 10 11H30C31.1046 11 32 10.1046 32 9C32 7.89543 31.1046 7 30 7H10ZM8 14C5.79086 14 4 15.7909 4 18V29.3333C4 31.5425 5.79086 33.3333 8 33.3333H32C34.2091 33.3333 36 31.5425 36 29.3333V18C36 15.7909 34.2091 14 32 14H8ZM15 19.6667C15 18.7462 14.2538 18 13.3333 18C12.4128 18 11.6666 18.7462 11.6666 19.6667V23C11.6666 23.9205 12.4128 24.6667 13.3333 24.6667H26.6666C27.5871 24.6667 28.3333 23.9205 28.3333 23V19.6667C28.3333 18.7462 27.5871 18 26.6666 18C25.7462 18 25 18.7462 25 19.6667V21.3333H15V19.6667Z" fill="black"/>
</svg>
