<svg width="40" height="40" viewBox="0 0 40 40" fill="none" xmlns="http://www.w3.org/2000/svg">
<path fill-rule="evenodd" clip-rule="evenodd" d="M16.5136 8.11842C18.0428 5.39982 21.957 5.39982 23.4862 8.11842L34.6468 27.9595C36.1467 30.6259 34.2198 33.9206 31.1605 33.9206H8.83932C5.78001 33.9206 3.85316 30.6259 5.35302 27.9595L16.5136 8.11842ZM21.9998 27.9208C21.9998 29.0253 21.1043 29.9208 19.9998 29.9208C18.8952 29.9208 17.9998 29.0253 17.9998 27.9208C17.9998 26.8162 18.8952 25.9208 19.9998 25.9208C21.1043 25.9208 21.9998 26.8162 21.9998 27.9208ZM19.9998 11.9208C18.8952 11.9208 17.9998 12.8162 17.9998 13.9208V19.9208C17.9998 21.0253 18.8952 21.9208 19.9998 21.9208C21.1043 21.9208 21.9998 21.0253 21.9998 19.9208V13.9208C21.9998 12.8162 21.1043 11.9208 19.9998 11.9208Z" fill="black"/>
</svg>
