<svg width="40" height="40" viewBox="0 0 40 40" fill="none" xmlns="http://www.w3.org/2000/svg">
<path d="M4.99984 4.99999L10.9818 10.9819M34.9998 35L29.0185 29.0186M23.1246 31.3744C22.1127 31.5662 21.0684 31.6667 20.0006 31.6667C12.5378 31.6667 6.22068 26.7618 4.09692 19.9999C4.67509 18.1592 5.56402 16.456 6.70223 14.952M16.4643 16.4645C17.3691 15.5596 18.6191 15 19.9998 15C22.7613 15 24.9998 17.2386 24.9998 20C24.9998 21.3807 24.4402 22.6307 23.5354 23.5355M16.4643 16.4645L23.5354 23.5355M16.4643 16.4645L10.9818 10.9819M23.5354 23.5355L10.9818 10.9819M23.5354 23.5355L29.0185 29.0186M10.9818 10.9819C13.5815 9.3059 16.6774 8.33333 20.0006 8.33333C27.4633 8.33333 33.7805 13.2382 35.9043 20.0001C34.7261 23.7512 32.2574 26.9308 29.0185 29.0186" stroke="black" stroke-width="2.21053" stroke-linecap="round" stroke-linejoin="round"/>
</svg>
