<svg width="40" height="40" viewBox="0 0 40 40" fill="none" xmlns="http://www.w3.org/2000/svg">
<path d="M18.0979 7.85407C18.6966 6.01145 21.3034 6.01145 21.9021 7.85407L24.0412 14.4377C24.309 15.2617 25.0769 15.8196 25.9433 15.8196H32.8657C34.8032 15.8196 35.6087 18.2989 34.0413 19.4377L28.441 23.5066C27.74 24.0158 27.4467 24.9186 27.7144 25.7426L29.8536 32.3262C30.4523 34.1688 28.3433 35.7011 26.7759 34.5623L21.1755 30.4934C20.4746 29.9841 19.5254 29.9841 18.8244 30.4934L13.2241 34.5623C11.6566 35.7011 9.54767 34.1688 10.1464 32.3262L12.2855 25.7426C12.5533 24.9186 12.2599 24.0158 11.559 23.5066L5.95863 19.4377C4.39121 18.2989 5.19676 15.8196 7.1342 15.8196H14.0566C14.9231 15.8196 15.691 15.2617 15.9587 14.4377L18.0979 7.85407Z" fill="black"/>
</svg>
