<svg width="40" height="40" viewBox="0 0 40 40" fill="none" xmlns="http://www.w3.org/2000/svg">
<path fill-rule="evenodd" clip-rule="evenodd" d="M19.8294 36.7409L23.3422 34.9638C24.5241 34.3658 25.2692 33.1538 25.2692 31.8293V19.3558C25.2692 18.5879 25.5209 17.8412 25.9856 17.2299L33.2772 7.63883C35.0355 5.32602 33.3861 2 30.4808 2H9.51922C6.61393 2 4.9645 5.32602 6.72282 7.63883L14.0144 17.2299C14.4791 17.8412 14.7307 18.5879 14.7307 19.3558V33.6064C14.7307 36.225 17.4928 37.923 19.8294 36.7409ZM16.1117 15.6353L8.82014 6.04432C8.76517 5.97207 8.72357 5.89581 8.69418 5.81774C8.48856 5.27122 8.88371 4.63461 9.51922 4.63461H30.4808C31.2071 4.63461 31.6194 5.46614 31.1799 6.04432L23.8883 15.6353C23.075 16.7052 22.6346 18.012 22.6346 19.3558V31.8293C22.6346 32.1604 22.4484 32.4634 22.1529 32.6128L18.6401 34.39C18.0559 34.6856 17.3654 34.261 17.3654 33.6064V19.3558C17.3654 18.012 16.925 16.7052 16.1117 15.6353Z" fill="black"/>
</svg>
