<svg width="40" height="40" viewBox="0 0 40 40" fill="none" xmlns="http://www.w3.org/2000/svg">
<path d="M30.894 13.11L30.9168 13.0883L25.2728 7.72224L23.6667 9.25333L26.8637 12.3011C25.4395 12.8211 24.4243 14.1283 24.4243 15.6667C24.4243 17.66 26.1212 19.2778 28.2121 19.2778C28.75 19.2778 29.2652 19.1694 29.7273 18.9744V29.3888C29.7273 30.1833 29.0455 30.8333 28.2122 30.8333C27.3789 30.8333 26.6971 30.1833 26.6971 29.3889V22.8889C26.6971 21.2928 25.341 20 23.6667 20H22.1516V9.88891C22.1515 8.29276 20.7955 7 19.1213 7H10.0303C8.35604 7 7 8.29276 7 9.88891V33H22.1515V22.1667H24.4243V29.3889C24.4243 31.3822 26.1212 33 28.2121 33C30.303 33 32 31.3822 32 29.3889V15.6667C32.0001 14.67 31.5759 13.7672 30.894 13.11ZM19.1213 17.1111H10.0303V9.88891H19.1213V17.1111ZM28.2122 17.1111C27.3789 17.1111 26.6971 16.4611 26.6971 15.6667C26.6971 14.8722 27.3789 14.2222 28.2122 14.2222C29.0455 14.2222 29.7273 14.8722 29.7273 15.6667C29.7273 16.4611 29.0455 17.1111 28.2122 17.1111Z" fill="black"/>
</svg>
