<svg width="40" height="40" viewBox="0 0 40 40" fill="none" xmlns="http://www.w3.org/2000/svg">
<path fill-rule="evenodd" clip-rule="evenodd" d="M4 12C4 9.79086 5.79086 8 8 8H18L22 12H32C34.2091 12 36 13.7909 36 16V28C36 30.2091 34.2091 32 32 32H8C5.79086 32 4 30.2091 4 28V12ZM16.4142 17.5858C15.6332 16.8047 14.3668 16.8047 13.5858 17.5858C12.8047 18.3668 12.8047 19.6332 13.5858 20.4142L18.5858 25.4142C19.3668 26.1953 20.6332 26.1953 21.4142 25.4142L26.4142 20.4142C27.1953 19.6332 27.1953 18.3668 26.4142 17.5858C25.6332 16.8047 24.3668 16.8047 23.5858 17.5858L20 21.1716L16.4142 17.5858Z" fill="black"/>
</svg>
