<svg width="40" height="40" viewBox="0 0 40 40" fill="none" xmlns="http://www.w3.org/2000/svg">
<path fill-rule="evenodd" clip-rule="evenodd" d="M36 20C36 28.8366 28.8366 36 20 36C11.1634 36 4 28.8366 4 20C4 11.1634 11.1634 4 20 4C28.8366 4 36 11.1634 36 20ZM22 12C22 13.1046 21.1046 14 20 14C18.8954 14 18 13.1046 18 12C18 10.8954 18.8954 10 20 10C21.1046 10 22 10.8954 22 12ZM18 18C16.8954 18 16 18.8954 16 20C16 21.1046 16.8954 22 18 22V28C18 29.1046 18.8954 30 20 30H22C23.1046 30 24 29.1046 24 28C24 26.8954 23.1046 26 22 26V20C22 18.8954 21.1046 18 20 18H18Z" fill="black"/>
</svg>
