<svg width="40" height="40" viewBox="0 0 40 40" fill="none" xmlns="http://www.w3.org/2000/svg">
<path fill-rule="evenodd" clip-rule="evenodd" d="M23.7499 4.16667C23.7499 4.05616 23.706 3.95018 23.6279 3.87204C23.5497 3.7939 23.4438 3.75 23.3333 3.75H11.6666C10.451 3.75 9.28522 4.23289 8.42568 5.09243C7.56614 5.95197 7.08325 7.11776 7.08325 8.33333V31.6667C7.08325 32.8822 7.56614 34.048 8.42568 34.9076C9.28522 35.7671 10.451 36.25 11.6666 36.25H28.3333C29.5488 36.25 30.7146 35.7671 31.5742 34.9076C32.4337 34.048 32.9166 32.8822 32.9166 31.6667V15.245C32.9166 15.1345 32.8727 15.0285 32.7945 14.9504C32.7164 14.8722 32.6104 14.8283 32.4999 14.8283H24.9999C24.6684 14.8283 24.3505 14.6966 24.116 14.4622C23.8816 14.2278 23.7499 13.9099 23.7499 13.5783V4.16667ZM24.9999 20.4167C25.3314 20.4167 25.6494 20.5484 25.8838 20.7828C26.1182 21.0172 26.2499 21.3351 26.2499 21.6667C26.2499 21.9982 26.1182 22.3161 25.8838 22.5505C25.6494 22.785 25.3314 22.9167 24.9999 22.9167H14.9999C14.6684 22.9167 14.3505 22.785 14.116 22.5505C13.8816 22.3161 13.7499 21.9982 13.7499 21.6667C13.7499 21.3351 13.8816 21.0172 14.116 20.7828C14.3505 20.5484 14.6684 20.4167 14.9999 20.4167H24.9999ZM24.9999 27.0833C25.3314 27.0833 25.6494 27.215 25.8838 27.4494C26.1182 27.6839 26.2499 28.0018 26.2499 28.3333C26.2499 28.6649 26.1182 28.9828 25.8838 29.2172C25.6494 29.4516 25.3314 29.5833 24.9999 29.5833H14.9999C14.6684 29.5833 14.3505 29.4516 14.116 29.2172C13.8816 28.9828 13.7499 28.6649 13.7499 28.3333C13.7499 28.0018 13.8816 27.6839 14.116 27.4494C14.3505 27.215 14.6684 27.0833 14.9999 27.0833H24.9999Z" fill="black"/>
<path d="M26.25 4.70666C26.25 4.39999 26.5717 4.20499 26.81 4.39666C27.0117 4.55999 27.1933 4.74999 27.3483 4.96666L32.37 11.9617C32.4833 12.1217 32.36 12.3283 32.1633 12.3283H26.6667C26.5562 12.3283 26.4502 12.2844 26.372 12.2063C26.2939 12.1281 26.25 12.0222 26.25 11.9117V4.70666Z" fill="black"/>
</svg>
