<svg width="40" height="40" viewBox="0 0 40 40" fill="none" xmlns="http://www.w3.org/2000/svg">
<path d="M12.1647 18.7732L10.9963 22.3952H13.3331L12.1647 18.7732Z" fill="black"/>
<path d="M34.7148 3H16.0206V8.84192H20.6942V11.1787H5.50516C3.5189 11.1787 2 12.6976 2 14.6838V27.5361C2 29.5223 3.5189 31.0412 5.50516 31.0412H6.67354V37L14.0344 31.0412H21.8625V22.8625H34.7148C36.701 22.8625 38.2199 21.3436 38.2199 19.3574V6.50515C38.2199 4.5189 36.701 3 34.7148 3ZM14.6186 26.2509L14.0344 24.3814H10.4124L9.71134 26.2509H6.90722L10.7629 15.8522H13.567L17.4227 26.2509H14.6186ZM32.378 17.0206V19.3574C30.8591 19.3574 29.2234 18.89 27.8213 18.189C26.4192 18.89 24.7835 19.2406 23.1478 19.3574L23.0309 17.0206C23.8488 17.0206 24.6667 16.9038 25.4845 16.6701C24.433 15.6186 23.732 14.3333 23.3814 12.9313H25.8351C26.1856 13.9828 26.8866 14.8007 27.7045 15.5017C28.9897 14.4502 29.8076 12.9313 29.9244 11.1787H22.9141V8.84192H26.4192V6.50515H28.756V8.84192H32.6117L32.7285 10.0103C32.8454 12.4639 31.9107 14.9175 30.1581 16.6701C30.9759 16.9038 31.677 17.0206 32.378 17.0206Z" fill="black"/>
</svg>
