<svg width="40" height="40" viewBox="0 0 40 40" fill="none" xmlns="http://www.w3.org/2000/svg">
<path d="M8 8.75C8 6.67893 9.66294 5 11.7143 5H30.2857C32.3371 5 34 6.67893 34 8.75V33.2686C34 34.0382 33.1669 34.5194 32.5003 34.1348L27.9997 31.5383C27.6905 31.3599 27.3095 31.3599 27.0003 31.5383L21.4997 34.7117C21.1905 34.8901 20.8095 34.8901 20.5003 34.7117L14.9997 31.5383C14.6905 31.3599 14.3095 31.3599 14.0003 31.5383L9.49972 34.1348C8.83306 34.5194 8 34.0382 8 33.2686V21H19.1716L16.5858 23.5858C15.8047 24.3668 15.8047 25.6332 16.5858 26.4142C17.3668 27.1953 18.6332 27.1953 19.4142 26.4142L25.4142 20.4142C26.1953 19.6332 26.1953 18.3668 25.4142 17.5858L19.4142 11.5858C18.6332 10.8047 17.3668 10.8047 16.5858 11.5858C15.8047 12.3668 15.8047 13.6332 16.5858 14.4142L19.1716 17H8V8.75Z" fill="black"/>
<path d="M8 17H4C2.89543 17 2 17.8954 2 19C2 20.1046 2.89543 21 4 21H8V17Z" fill="black"/>
</svg>
