<svg width="40" height="40" viewBox="0 0 40 40" fill="none" xmlns="http://www.w3.org/2000/svg">
<path d="M27.7622 3H12.2203C11.6314 3 11.0667 3.24834 10.6503 3.69039C10.2339 4.13244 10 4.73199 10 5.35714V33.6429C10 34.268 10.2339 34.8676 10.6503 35.3096C11.0667 35.7517 11.6314 36 12.2203 36H27.7622C28.3511 36 28.9158 35.7517 29.3322 35.3096C29.7486 34.8676 29.9825 34.268 29.9825 33.6429V5.35714C29.9825 4.73199 29.7486 4.13244 29.3322 3.69039C28.9158 3.24834 28.3511 3 27.7622 3ZM21.1014 33.6429H18.8811V31.2857H21.1014V33.6429ZM12.2203 28.9286V5.35714H27.7622V28.9286H12.2203Z" fill="black"/>
</svg>
