<svg width="40" height="40" viewBox="0 0 40 40" fill="none" xmlns="http://www.w3.org/2000/svg">
<path fill-rule="evenodd" clip-rule="evenodd" d="M10 10C10 6.68629 12.6863 4 16 4C17.5367 4 18.9385 4.57771 20 5.52779C21.0615 4.57771 22.4633 4 24 4C27.3137 4 30 6.68629 30 10C30 10.7013 29.8797 11.3744 29.6586 12H32C34.2091 12 36 13.7909 36 16C36 18.2091 34.2091 20 32 20H22V18C22 16.8954 21.1046 16 20 16C18.8954 16 18 16.8954 18 18V20H8C5.79086 20 4 18.2091 4 16C4 13.7909 5.79086 12 8 12H10.3414C10.1203 11.3744 10 10.7013 10 10ZM18 12V10C18 8.89543 17.1046 8 16 8C14.8954 8 14 8.89543 14 10C14 11.1046 14.8954 12 16 12H18ZM24 12C25.1046 12 26 11.1046 26 10C26 8.89543 25.1046 8 24 8C22.8954 8 22 8.89543 22 10V12H24Z" fill="black"/>
<path d="M18 22H6V32C6 34.2091 7.79086 36 10 36H18V22Z" fill="black"/>
<path d="M22 36H30C32.2091 36 34 34.2091 34 32V22H22V36Z" fill="black"/>
</svg>
