<svg width="40" height="40" viewBox="0 0 40 40" fill="none" xmlns="http://www.w3.org/2000/svg">
<path d="M34.672 10.9105C34.4703 11.1076 34.2021 11.2161 33.9168 11.2161L32.1004 11.2163C30.3413 11.2164 28.6873 11.8856 27.4434 13.1007L24.3856 16.0875C24.1631 16.3048 23.8024 16.3048 23.58 16.0875L20.6094 13.1858C20.3869 12.9685 20.3869 12.6162 20.6094 12.3989L23.6669 9.41227C25.9197 7.21175 28.9149 5.99986 32.1009 6L33.9168 6.00007C34.5058 6.00014 34.9848 6.46816 34.9848 7.04337V10.1728C34.9849 10.4514 34.8738 10.7134 34.672 10.9105Z" fill="black"/>
<path fill-rule="evenodd" clip-rule="evenodd" d="M24.2545 18.3028C24.2179 18.0883 24.1136 17.8903 23.9562 17.7365L18.9212 12.8184C18.5041 12.4109 17.8279 12.4109 17.4108 12.8184L15.6485 14.5397L14.3897 13.3102C13.9726 12.9027 13.2964 12.9027 12.8793 13.3102L8.34776 17.7365C8.00121 18.075 7.93499 18.6005 8.18712 19.011L9.26859 20.7715L3.31284 26.5892C2.89572 26.9966 2.89572 27.6572 3.31284 28.0646L8.85133 33.4746C10.9336 35.5085 14.3216 35.5084 16.4038 33.4746L24.9632 25.1137C25.2071 24.8755 25.3182 24.5369 25.2615 24.2045L24.2545 18.3028ZM14.8933 31.9991C13.644 33.2195 11.6112 33.2195 10.3618 31.9991L9.60653 31.2614L13.5734 27.3866V28.8023C13.5734 29.3785 14.0516 29.8456 14.6414 29.8456C15.2313 29.8456 15.7095 29.3785 15.7095 28.8023V26.5559L18.8804 28.1045L14.8933 31.9991Z" fill="black"/>
<path d="M36.4317 19.2282C35.7068 18.0077 34.9926 16.9954 34.9625 16.9529C34.7631 16.6708 34.4346 16.5025 34.0837 16.5025C33.7328 16.5025 33.4043 16.6708 33.2049 16.9529C33.1749 16.9954 32.4606 18.0077 31.7357 19.2282C30.33 21.5953 30.1674 22.5773 30.1674 23.1101C30.1674 25.2194 31.9243 26.9355 34.0837 26.9355C36.2432 26.9355 38 25.2194 38 23.1101C38 22.5773 37.8374 21.5953 36.4317 19.2282Z" fill="black"/>
</svg>
