<svg width="40" height="40" viewBox="0 0 40 40" fill="none" xmlns="http://www.w3.org/2000/svg">
<path d="M21.731 20.5002C21.2441 20.9877 20.6669 21.2308 20.0002 21.2308C19.3336 21.2308 18.7565 20.9877 18.2693 20.5002C17.7821 20.0132 17.5385 19.4361 17.5385 18.7696V6.46167C17.5385 5.79511 17.7821 5.21801 18.2693 4.73109C18.7565 4.2439 19.3334 4 20.0002 4C20.6669 4 21.2442 4.24363 21.731 4.73109C22.2182 5.21801 22.4621 5.79485 22.4621 6.46167V18.7695C22.4621 19.436 22.218 20.0132 21.731 20.5002Z" fill="black"/>
<path d="M28.866 9.44262C30.7377 10.8399 32.1894 12.5708 33.2216 14.6347C34.2538 16.6989 34.769 18.8975 34.7689 21.2307C34.7689 23.2305 34.3782 25.141 33.5961 26.9615C32.8141 28.782 31.763 30.3527 30.4426 31.673C29.1221 32.9933 27.5516 34.0447 25.7309 34.8263C23.9104 35.6086 22.0002 36 20.0002 36C18.0002 36 16.09 35.6086 14.2695 34.8263C12.4489 34.0449 10.8783 32.9934 9.558 31.673C8.23727 30.3523 7.18618 28.782 6.40397 26.9615C5.62203 25.141 5.23096 23.231 5.23096 21.2307C5.23096 18.8976 5.74684 16.6989 6.77901 14.6347C7.81124 12.5708 9.26291 10.8399 11.1349 9.44262C11.6861 9.03242 12.2984 8.87204 12.9716 8.96176C13.6448 9.05148 14.1798 9.37203 14.5773 9.92314C14.9876 10.4615 15.1445 11.0675 15.0484 11.7403C14.9521 12.4136 14.6349 12.955 14.0965 13.3655C12.8401 14.3144 11.869 15.4747 11.1831 16.8464C10.4973 18.2182 10.1543 19.6797 10.1543 21.2307C10.1543 22.5644 10.414 23.8365 10.9331 25.0483C11.4525 26.2599 12.1544 27.3077 13.0388 28.1924C13.9235 29.0769 14.9714 29.7787 16.1831 30.298C17.3946 30.8174 18.6671 31.0773 20.0003 31.0773C21.3336 31.0773 22.606 30.8174 23.8175 30.298C25.0293 29.7787 26.0769 29.0769 26.9616 28.1924C27.8463 27.3077 28.5485 26.2598 29.0675 25.0483C29.5866 23.8365 29.8462 22.5644 29.8462 21.2307C29.8462 19.6797 29.5036 18.218 28.8177 16.8464C28.1321 15.4746 27.1604 14.3142 25.9045 13.3655C25.3661 12.9553 25.0484 12.4138 24.9526 11.7403C24.8566 11.0673 25.0134 10.4615 25.4237 9.92314C25.8211 9.37203 26.3595 9.05155 27.0391 8.96176C27.7186 8.87211 28.3275 9.03242 28.866 9.44262Z" fill="black"/>
</svg>
