<svg width="40" height="40" viewBox="0 0 40 40" fill="none" xmlns="http://www.w3.org/2000/svg">
<path d="M18.7915 27.8374V29.8913C19.0512 29.9632 19.2528 30 19.9613 30C20.6692 30 20.9475 29.9631 21.2067 29.8913V27.8374C22.5703 27.6212 23.8829 27.1126 24.73 26.311C25.5759 25.5105 26 24.5133 26 23.3248C26 21.1635 24.7989 19.6052 22.3969 18.6504L20.0122 17.7044C19.5977 17.5419 19.2953 17.3895 19.1051 17.2445C18.915 17.1007 18.819 16.9027 18.819 16.6502C18.819 15.9654 19.2857 15.623 20.2185 15.623C21.152 15.623 22.4814 15.9835 24.2098 16.7033C24.6243 16.3434 24.9615 15.8617 25.2212 15.2581C25.4804 14.6544 25.6094 14.0465 25.6094 13.4335C23.9164 12.6912 22.4226 12.4156 21.1964 12.2713V10.1356C20.8685 10.045 20.7034 10 20.0634 10C19.4251 10 19.1269 10.045 18.8006 10.1356V12.2976C17.6079 12.5319 16.5694 12.8981 15.723 13.8922C15.0049 14.7357 14.6221 15.7298 14.6221 16.9195C14.6221 18.9015 15.7793 20.3518 18.095 21.2709L20.5571 22.1901C21.3345 22.4963 21.7227 22.9293 21.7227 23.4873C21.7227 23.8472 21.5763 24.1221 21.2824 24.3114C20.989 24.5001 20.5919 24.5944 20.091 24.5944C18.8119 24.5944 17.2744 24.099 15.4776 23.1079C15.0972 23.3785 14.7601 23.8327 14.4668 24.4732C14.1728 25.113 14.0168 25.6942 14 26.2165C15.9779 27.4626 16.9084 27.5675 18.7915 27.8374Z" fill="black"/>
<mask id="path-2-inside-1_1_979" fill="white">
<path d="M4.8125 20C4.8125 20.8649 4.88541 21.7317 5.02927 22.5764C5.1597 23.342 4.64473 24.0684 3.8791 24.1988C3.79923 24.2123 3.7197 24.2189 3.6413 24.2189C2.96834 24.2189 2.3735 23.7344 2.25671 23.0486C2.08641 22.0484 2 21.0227 2 20C2 15.1901 3.87052 10.6698 7.26704 7.27168C10.665 3.87221 15.187 2 20 2C23.1789 2 26.3032 2.83876 29.0353 4.42557C30.4444 5.24394 31.7326 6.25236 32.8672 7.41174V5.9375C32.8672 5.16083 33.4968 4.53125 34.2734 4.53125C35.0501 4.53125 35.6797 5.16083 35.6797 5.9375V11.5625C35.6797 11.5706 35.6791 11.5786 35.6786 11.5866C35.6782 11.5926 35.6778 11.5985 35.6776 11.6045L35.6775 11.6064C35.6541 12.3625 35.0353 12.9687 34.2734 12.9687H28.6484C27.8718 12.9687 27.2422 12.3392 27.2422 11.5625C27.2422 10.7858 27.8718 10.1562 28.6484 10.1562H31.5668C28.7067 6.81183 24.4683 4.8125 20 4.8125C11.6256 4.8125 4.8125 11.6256 4.8125 20Z"/>
<path d="M34.9707 17.4236C34.8403 16.658 35.3553 15.9316 36.1209 15.8012C36.8864 15.6707 37.6129 16.1858 37.7433 16.9514C37.9136 17.9516 38 18.9773 38 20C38 24.8099 36.1295 29.3303 32.733 32.7283C29.335 36.1278 24.813 38 20 38C16.8211 38 13.6968 37.1612 10.9647 35.5744C9.55571 34.7561 8.26737 33.7476 7.13281 32.5883V34.0625C7.13281 34.8392 6.50323 35.4688 5.72656 35.4688C4.94989 35.4688 4.32031 34.8392 4.32031 34.0625V28.4375C4.32031 28.4294 4.32086 28.4214 4.32142 28.4134C4.32183 28.4074 4.32224 28.4015 4.32242 28.3955L4.32249 28.3936C4.34591 27.6375 4.96473 27.0313 5.72656 27.0313H11C11.7767 27.0313 12.4062 27.6608 12.4062 28.4375C12.4062 29.2142 11.7767 29.8438 11 29.8438H8.43317C11.2933 33.1882 15.5317 35.1875 20 35.1875C28.3744 35.1875 35.1875 28.3744 35.1875 20C35.1875 19.1351 35.1146 18.2683 34.9707 17.4236Z"/>
</mask>
<path d="M4.8125 20C4.8125 20.8649 4.88541 21.7317 5.02927 22.5764C5.1597 23.342 4.64473 24.0684 3.8791 24.1988C3.79923 24.2123 3.7197 24.2189 3.6413 24.2189C2.96834 24.2189 2.3735 23.7344 2.25671 23.0486C2.08641 22.0484 2 21.0227 2 20C2 15.1901 3.87052 10.6698 7.26704 7.27168C10.665 3.87221 15.187 2 20 2C23.1789 2 26.3032 2.83876 29.0353 4.42557C30.4444 5.24394 31.7326 6.25236 32.8672 7.41174V5.9375C32.8672 5.16083 33.4968 4.53125 34.2734 4.53125C35.0501 4.53125 35.6797 5.16083 35.6797 5.9375V11.5625C35.6797 11.5706 35.6791 11.5786 35.6786 11.5866C35.6782 11.5926 35.6778 11.5985 35.6776 11.6045L35.6775 11.6064C35.6541 12.3625 35.0353 12.9687 34.2734 12.9687H28.6484C27.8718 12.9687 27.2422 12.3392 27.2422 11.5625C27.2422 10.7858 27.8718 10.1562 28.6484 10.1562H31.5668C28.7067 6.81183 24.4683 4.8125 20 4.8125C11.6256 4.8125 4.8125 11.6256 4.8125 20Z" fill="black"/>
<path d="M34.9707 17.4236C34.8403 16.658 35.3553 15.9316 36.1209 15.8012C36.8864 15.6707 37.6129 16.1858 37.7433 16.9514C37.9136 17.9516 38 18.9773 38 20C38 24.8099 36.1295 29.3303 32.733 32.7283C29.335 36.1278 24.813 38 20 38C16.8211 38 13.6968 37.1612 10.9647 35.5744C9.55571 34.7561 8.26737 33.7476 7.13281 32.5883V34.0625C7.13281 34.8392 6.50323 35.4688 5.72656 35.4688C4.94989 35.4688 4.32031 34.8392 4.32031 34.0625V28.4375C4.32031 28.4294 4.32086 28.4214 4.32142 28.4134C4.32183 28.4074 4.32224 28.4015 4.32242 28.3955L4.32249 28.3936C4.34591 27.6375 4.96473 27.0313 5.72656 27.0313H11C11.7767 27.0313 12.4062 27.6608 12.4062 28.4375C12.4062 29.2142 11.7767 29.8438 11 29.8438H8.43317C11.2933 33.1882 15.5317 35.1875 20 35.1875C28.3744 35.1875 35.1875 28.3744 35.1875 20C35.1875 19.1351 35.1146 18.2683 34.9707 17.4236Z" fill="black"/>
<path d="M5.02927 22.5764L4.04347 22.7443L4.04348 22.7443L5.02927 22.5764ZM3.8791 24.1988L4.04659 25.1846L4.04695 25.1846L3.8791 24.1988ZM2.25671 23.0486L1.2709 23.2164L1.27091 23.2165L2.25671 23.0486ZM7.26704 7.27168L6.55977 6.56473L6.55976 6.56474L7.26704 7.27168ZM29.0353 4.42557L28.5331 5.2903L28.5331 5.2903L29.0353 4.42557ZM32.8672 7.41174L32.1525 8.11115L33.8672 9.86338V7.41174H32.8672ZM35.6786 11.5866L36.6762 11.6554L36.6762 11.6552L35.6786 11.5866ZM35.6776 11.6045L36.6768 11.644L36.6771 11.6348L35.6776 11.6045ZM35.6775 11.6064L34.6782 11.5669L34.678 11.5754L35.6775 11.6064ZM31.5668 10.1562V11.1562H33.7379L32.3268 9.5063L31.5668 10.1562ZM36.1209 15.8012L36.2887 16.787L36.289 16.787L36.1209 15.8012ZM34.9707 17.4236L35.9565 17.2557L35.9565 17.2557L34.9707 17.4236ZM37.7433 16.9514L38.7291 16.7836L38.7291 16.7835L37.7433 16.9514ZM32.733 32.7283L32.0257 32.0214L32.733 32.7283ZM10.9647 35.5744L10.4625 36.4392H10.4625L10.9647 35.5744ZM7.13281 32.5883L7.84753 31.8888L6.13281 30.1366V32.5883H7.13281ZM4.32142 28.4134L5.31904 28.4824L5.31904 28.4824L4.32142 28.4134ZM4.32242 28.3955L3.32313 28.357L3.32287 28.3655L4.32242 28.3955ZM4.32249 28.3936L5.32178 28.4321L5.32201 28.4246L4.32249 28.3936ZM8.43317 29.8438V28.8438H6.26214L7.67319 30.4937L8.43317 29.8438ZM6.01508 22.4085C5.88076 21.6198 5.8125 20.8092 5.8125 20H3.8125C3.8125 20.9206 3.89007 21.8436 4.04347 22.7443L6.01508 22.4085ZM4.04695 25.1846C5.35708 24.9615 6.23825 23.7185 6.01507 22.4084L4.04348 22.7443C4.08115 22.9655 3.93239 23.1753 3.71125 23.213L4.04695 25.1846ZM3.6413 25.2189C3.77592 25.2189 3.91147 25.2076 4.04659 25.1846L3.71161 23.2129C3.68698 23.2171 3.66349 23.2189 3.6413 23.2189V25.2189ZM1.27091 23.2165C1.47091 24.3909 2.48908 25.2189 3.6413 25.2189V23.2189C3.44761 23.2189 3.27609 23.0778 3.24252 22.8807L1.27091 23.2165ZM1 20C1 21.0785 1.09109 22.1604 1.2709 23.2164L3.24252 22.8807C3.08174 21.9364 3 20.9668 3 20H1ZM6.55976 6.56474C2.97558 10.1506 1 14.9253 1 20H3C3 15.4549 4.76547 11.189 7.97431 7.97861L6.55976 6.56474ZM20 1C14.9221 1 10.1455 2.97734 6.55977 6.56473L7.97431 7.97862C11.1844 4.76708 15.4519 3 20 3V1ZM29.5375 3.56084C26.6519 1.88486 23.3542 1 20 1V3C23.0036 3 25.9545 3.79266 28.5331 5.2903L29.5375 3.56084ZM33.5819 6.71232C32.3856 5.4898 31.0261 4.42538 29.5375 3.56083L28.5331 5.2903C29.8626 6.0625 31.0797 7.01491 32.1525 8.11115L33.5819 6.71232ZM31.8672 5.9375V7.41174H33.8672V5.9375H31.8672ZM34.2734 3.53125C32.9445 3.53125 31.8672 4.60854 31.8672 5.9375H33.8672C33.8672 5.71311 34.049 5.53125 34.2734 5.53125V3.53125ZM36.6797 5.9375C36.6797 4.60854 35.6024 3.53125 34.2734 3.53125V5.53125C34.4978 5.53125 34.6797 5.71311 34.6797 5.9375H36.6797ZM36.6797 11.5625V5.9375H34.6797V11.5625H36.6797ZM36.6762 11.6552C36.6764 11.653 36.6797 11.6107 36.6797 11.5625H34.6797C34.6797 11.5442 34.6803 11.5302 34.6807 11.5231C34.681 11.517 34.6813 11.5123 34.6809 11.5179L36.6762 11.6552ZM36.6771 11.6348C36.6768 11.6443 36.6764 11.6515 36.6762 11.6547C36.6761 11.6574 36.6759 11.6592 36.6762 11.6554L34.681 11.5177C34.6808 11.5205 34.6789 11.5458 34.678 11.5743L36.6771 11.6348ZM36.6767 11.6458L36.6768 11.644L34.6784 11.5651L34.6783 11.5669L36.6767 11.6458ZM34.2734 13.9687C35.579 13.9687 36.637 12.9299 36.677 11.6373L34.678 11.5754C34.6712 11.7951 34.4916 11.9687 34.2734 11.9687V13.9687ZM28.6484 13.9687H34.2734V11.9687H28.6484V13.9687ZM26.2422 11.5625C26.2422 12.8914 27.3195 13.9687 28.6484 13.9687V11.9687C28.424 11.9687 28.2422 11.7869 28.2422 11.5625H26.2422ZM28.6484 9.15624C27.3195 9.15624 26.2422 10.2335 26.2422 11.5625H28.2422C28.2422 11.3381 28.424 11.1562 28.6484 11.1562V9.15624ZM31.5668 9.15624H28.6484V11.1562H31.5668V9.15624ZM20 5.8125C24.1712 5.8125 28.1335 7.68025 30.8068 10.8062L32.3268 9.5063C29.2798 5.94341 24.7654 3.8125 20 3.8125V5.8125ZM5.8125 20C5.8125 12.1778 12.1779 5.8125 20 5.8125V3.8125C11.0733 3.8125 3.8125 11.0733 3.8125 20H5.8125ZM35.953 14.8154C34.6429 15.0385 33.7617 16.2815 33.9849 17.5916L35.9565 17.2557C35.9188 17.0345 36.0676 16.8247 36.2887 16.787L35.953 14.8154ZM38.7291 16.7835C38.5059 15.4735 37.263 14.5921 35.9528 14.8155L36.289 16.787C36.5098 16.7494 36.7198 16.898 36.7575 17.1193L38.7291 16.7835ZM39 20C39 18.9215 38.9089 17.8396 38.7291 16.7836L36.7575 17.1193C36.9183 18.0636 37 19.0332 37 20H39ZM33.4402 33.4353C37.0244 29.8494 39 25.0747 39 20H37C37 24.5451 35.2345 28.8111 32.0257 32.0214L33.4402 33.4353ZM20 39C25.0779 39 29.8545 37.0227 33.4402 33.4353L32.0257 32.0214C28.8156 35.2329 24.5481 37 20 37V39ZM10.4625 36.4392C13.3481 38.1151 16.6458 39 20 39V37C16.9964 37 14.0455 36.2073 11.4669 34.7097L10.4625 36.4392ZM6.4181 33.2877C7.61446 34.5102 8.97399 35.5746 10.4625 36.4392L11.4669 34.7097C10.1374 33.9375 8.92029 32.9851 7.84753 31.8888L6.4181 33.2877ZM8.13281 34.0625V32.5883H6.13281V34.0625H8.13281ZM5.72656 36.4688C7.05552 36.4688 8.13281 35.3915 8.13281 34.0625H6.13281C6.13281 34.2869 5.95095 34.4688 5.72656 34.4688V36.4688ZM3.32031 34.0625C3.32031 35.3915 4.39761 36.4688 5.72656 36.4688V34.4688C5.50217 34.4688 5.32031 34.2869 5.32031 34.0625H3.32031ZM3.32031 28.4375V34.0625H5.32031V28.4375H3.32031ZM3.3238 28.3445C3.32362 28.3471 3.32031 28.3892 3.32031 28.4375H5.32031C5.32031 28.4557 5.3197 28.4698 5.31933 28.477C5.31901 28.4831 5.31866 28.4878 5.31904 28.4824L3.3238 28.3445ZM3.32287 28.3655C3.32316 28.3558 3.32356 28.3486 3.32376 28.3453C3.32392 28.3426 3.32406 28.3407 3.32379 28.3445L5.31904 28.4824C5.31923 28.4796 5.32111 28.4542 5.32197 28.4255L3.32287 28.3655ZM3.32323 28.3552L3.32316 28.357L5.32168 28.4339L5.32175 28.4321L3.32323 28.3552ZM5.72656 26.0313C4.42101 26.0313 3.363 27.0701 3.32297 28.3627L5.32201 28.4246C5.32881 28.2049 5.50845 28.0313 5.72656 28.0313V26.0313ZM11 26.0313H5.72656V28.0313H11V26.0313ZM13.4062 28.4375C13.4062 27.1086 12.329 26.0313 11 26.0313V28.0313C11.2244 28.0313 11.4062 28.2131 11.4062 28.4375H13.4062ZM11 30.8438C12.329 30.8438 13.4062 29.7665 13.4062 28.4375H11.4062C11.4062 28.6619 11.2244 28.8438 11 28.8438V30.8438ZM8.43317 30.8438H11V28.8438H8.43317V30.8438ZM20 34.1875C15.8288 34.1875 11.8665 32.3197 9.19315 29.1938L7.67319 30.4937C10.7202 34.0566 15.2346 36.1875 20 36.1875V34.1875ZM34.1875 20C34.1875 27.8222 27.8221 34.1875 20 34.1875V36.1875C28.9267 36.1875 36.1875 28.9267 36.1875 20H34.1875ZM33.9849 17.5915C34.1192 18.3802 34.1875 19.1908 34.1875 20H36.1875C36.1875 19.0794 36.1099 18.1564 35.9565 17.2557L33.9849 17.5915Z" fill="black" mask="url(#path-2-inside-1_1_979)"/>
</svg>
