<svg width="40" height="40" viewBox="0 0 40 40" fill="none" xmlns="http://www.w3.org/2000/svg">
<path d="M29.875 11H10.125C9.77981 11 9.5 10.7202 9.5 10.375V8.75C9.5 7.23119 10.7312 6 12.25 6H27.75C29.2688 6 30.5 7.23119 30.5 8.75V10.375C30.5 10.7202 30.2202 11 29.875 11Z" fill="black"/>
<path fill-rule="evenodd" clip-rule="evenodd" d="M31.625 13H8.375C6.514 13 5 14.514 5 16.375V28.125C5 29.986 6.514 31.5 8.375 31.5H9.5V26.5C9.5 24.0187 11.5187 22 14 22H26C28.4813 22 30.5 24.0187 30.5 26.5V31.5H31.625C33.486 31.5 35 29.986 35 28.125V16.375C35 14.514 33.486 13 31.625 13ZM10.0012 20.5C9.17281 20.5 8.50094 19.8284 8.50094 19C8.50094 18.1716 9.17219 17.5 10.0006 17.5C10.8291 17.5 11.5012 18.1716 11.5012 19C11.5012 19.8284 10.8297 20.5 10.0012 20.5Z" fill="black"/>
<path d="M14 25H26C26.8284 25 27.5 25.6716 27.5 26.5V33.5C27.5 34.3284 26.8284 35 26 35H14C13.1716 35 12.5 34.3284 12.5 33.5V26.5C12.5 25.6716 13.1716 25 14 25Z" fill="black"/>
</svg>
