<svg width="40" height="40" viewBox="0 0 40 40" fill="none" xmlns="http://www.w3.org/2000/svg">
<path fill-rule="evenodd" clip-rule="evenodd" d="M34.04 9.88C34.5923 9.88 35.04 10.3277 35.04 10.88V29.08C35.04 31.3554 33.1954 33.2 30.92 33.2C28.6446 33.2 26.8 31.3554 26.8 29.08V17.32C26.8 16.5026 26.1374 15.84 25.32 15.84C24.7677 15.84 24.32 15.3923 24.32 14.84C24.32 14.2877 24.7677 13.84 25.32 13.84C27.2419 13.84 28.8 15.3981 28.8 17.32V29.08C28.8 30.2508 29.7492 31.2 30.92 31.2C32.0908 31.2 33.04 30.2508 33.04 29.08V10.88C33.04 10.3277 33.4877 9.88 34.04 9.88Z" fill="black"/>
<path d="M30.2869 10.9781C30.1701 10.598 30.3835 10.1951 30.7636 10.0783L34.7347 8.85787C35.1148 8.74106 35.5176 8.95449 35.6344 9.33459L36.7716 13.0348C36.8885 13.4149 36.675 13.8177 36.2949 13.9346L32.3239 15.155C31.9438 15.2718 31.541 15.0584 31.4241 14.6783L30.2869 10.9781Z" fill="black"/>
<path d="M30.0404 10.2558C29.8328 9.58009 30.2122 8.86395 30.8879 8.65627L34.0645 7.68L35.0418 10.86C35.3014 11.7047 34.8271 12.5999 33.9825 12.8595L32.6412 13.2717C31.7965 13.5313 30.9013 13.057 30.6417 12.2123L30.0404 10.2558Z" fill="black"/>
<path fill-rule="evenodd" clip-rule="evenodd" d="M31.4311 10.9689C31.603 11.1407 31.603 11.4193 31.4311 11.5911L31.0844 11.9379C30.6718 12.3505 30.44 12.9101 30.44 13.4935V15.32C30.44 16.535 31.425 17.52 32.64 17.52H34.16C34.403 17.52 34.6 17.717 34.6 17.96C34.6 18.203 34.403 18.4 34.16 18.4H32.64C30.939 18.4 29.56 17.021 29.56 15.32V13.4935C29.56 12.6767 29.8845 11.8933 30.4621 11.3156L30.8089 10.9689C30.9807 10.797 31.2593 10.797 31.4311 10.9689Z" fill="black"/>
<path fill-rule="evenodd" clip-rule="evenodd" d="M6.16002 4C6.16002 3.11635 6.87637 2.4 7.76002 2.4H24C24.8837 2.4 25.6 3.11635 25.6 4V33.44H6.16002V4ZM8.87999 6.00001C8.87999 5.55818 9.23816 5.20001 9.67999 5.20001H22.16C22.6018 5.20001 22.96 5.55818 22.96 6.00001V14.32C22.96 14.7618 22.6018 15.12 22.16 15.12H9.67999C9.23816 15.12 8.87999 14.7618 8.87999 14.32V6.00001ZM16.4209 19.2418C16.2145 18.829 15.6255 18.829 15.4191 19.2418L12.5591 24.9619C11.3098 27.4604 13.1266 30.4 15.92 30.4C18.7134 30.4 20.5302 27.4604 19.281 24.9619L16.4209 19.2418Z" fill="black"/>
<path fill-rule="evenodd" clip-rule="evenodd" d="M18.2646 25.6915C18.4792 25.6389 18.6958 25.7701 18.7485 25.9846C19.0033 27.022 18.7413 27.8519 18.2355 28.4598C17.7438 29.0508 17.0425 29.4096 16.4299 29.5846C16.2175 29.6453 15.9961 29.5223 15.9354 29.3099C15.8747 29.0975 15.9977 28.8761 16.2101 28.8154C16.7176 28.6704 17.2603 28.3812 17.6206 27.9482C17.9668 27.5321 18.1648 26.962 17.9716 26.1754C17.9189 25.9609 18.0501 25.7442 18.2646 25.6915Z" fill="black"/>
<path fill-rule="evenodd" clip-rule="evenodd" d="M27.8273 2.93047L27.4905 4.41267L31.0481 5.22123C31.2422 5.26534 31.4018 5.40283 31.4741 5.58827L32.2344 7.53721L33.6863 7.07666L32.8902 5.03589C32.6346 4.3807 32.0708 3.89489 31.385 3.73903L27.8273 2.93047ZM34.4437 9.01852L32.9918 9.47907L33.6882 11.2642L35.1042 10.7119L34.4437 9.01852Z" fill="black"/>
<path d="M3.04004 34.24H28.88V37.52H3.04004V34.24Z" fill="black"/>
</svg>
