<svg width="40" height="40" viewBox="0 0 40 40" fill="none" xmlns="http://www.w3.org/2000/svg">
<path fill-rule="evenodd" clip-rule="evenodd" d="M6 8C6 6.89543 6.89543 6 8 6H14C15.1046 6 16 6.89543 16 8V14C16 15.1046 15.1046 16 14 16H8C6.89543 16 6 15.1046 6 14V8ZM10 12V10H12V12H10Z" fill="black"/>
<path fill-rule="evenodd" clip-rule="evenodd" d="M6 26C6 24.8954 6.89543 24 8 24H14C15.1046 24 16 24.8954 16 26V32C16 33.1046 15.1046 34 14 34H8C6.89543 34 6 33.1046 6 32V26ZM10 30V28H12V30H10Z" fill="black"/>
<path fill-rule="evenodd" clip-rule="evenodd" d="M26 6C24.8954 6 24 6.89543 24 8V14C24 15.1046 24.8954 16 26 16H32C33.1046 16 34 15.1046 34 14V8C34 6.89543 33.1046 6 32 6H26ZM28 10V12H30V10H28Z" fill="black"/>
<path d="M22 8C22 6.89543 21.1046 6 20 6C18.8954 6 18 6.89543 18 8V10C18 11.1046 18.8954 12 20 12C21.1046 12 22 11.1046 22 10V8Z" fill="black"/>
<path d="M20 14C21.1046 14 22 14.8954 22 16V18H26C27.1046 18 28 18.8954 28 20C28 21.1046 27.1046 22 26 22H20C18.8954 22 18 21.1046 18 20V16C18 14.8954 18.8954 14 20 14Z" fill="black"/>
<path d="M32 18C30.8954 18 30 18.8954 30 20C30 21.1046 30.8954 22 32 22C33.1046 22 34 21.1046 34 20C34 18.8954 33.1046 18 32 18Z" fill="black"/>
<path d="M18 26C18 24.8954 18.8954 24 20 24H22C23.1046 24 24 24.8954 24 26C24 27.1046 23.1046 28 22 28V32C22 33.1046 21.1046 34 20 34C18.8954 34 18 33.1046 18 32V26Z" fill="black"/>
<path d="M14 22C15.1046 22 16 21.1046 16 20C16 18.8954 15.1046 18 14 18H8C6.89543 18 6 18.8954 6 20C6 21.1046 6.89543 22 8 22H14Z" fill="black"/>
<path d="M34 26C34 27.1046 33.1046 28 32 28H28C26.8954 28 26 27.1046 26 26C26 24.8954 26.8954 24 28 24H32C33.1046 24 34 24.8954 34 26Z" fill="black"/>
<path d="M32 34C33.1046 34 34 33.1046 34 32C34 30.8954 33.1046 30 32 30H26C24.8954 30 24 30.8954 24 32C24 33.1046 24.8954 34 26 34H32Z" fill="black"/>
</svg>
