<svg width="40" height="40" viewBox="0 0 40 40" fill="none" xmlns="http://www.w3.org/2000/svg">
<g clip-path="url(#clip0_18_1683)">
<path d="M35.6139 36.2526C29.4932 41.2491 10.3816 41.2491 4.38583 36.2526C-1.73487 31.2561 -1.11032 9.89612 4.38583 4.27507C9.88199 -1.34597 30.1178 -1.34597 35.6139 4.27507C41.1101 9.89612 41.7346 31.2562 35.6139 36.2526Z" fill="#FBB03B"/>
<path fill-rule="evenodd" clip-rule="evenodd" d="M17.3243 13.2789C18.0337 12.0627 19.1807 11.5731 20.2034 11.6024C21.2642 11.6328 21.9517 12.1734 22.1802 12.8538C22.4535 13.6673 22.3705 14.0889 22.2615 14.3772C22.1077 14.7845 21.795 15.2088 21.1443 15.9622C21.0803 16.0363 21.014 16.1124 20.9459 16.1907C19.7044 17.6165 17.8469 19.7497 17.8469 23.4201C17.8469 24.6907 18.8847 25.7207 20.1648 25.7207C21.445 25.7207 22.4827 24.6907 22.4827 23.4201C22.4827 21.4808 23.3265 20.5044 24.5768 19.0577L24.6641 18.9567C25.2777 18.2461 26.1239 17.2587 26.6022 15.9928C27.1254 14.6079 27.1478 13.0949 26.5781 11.3987C25.6125 8.52356 22.9286 7.07731 20.337 7.00312C17.7073 6.92783 14.9208 8.216 13.3123 10.9736C12.6709 12.0732 13.0491 13.4807 14.1569 14.1173C15.2648 14.7539 16.6829 14.3785 17.3243 13.2789ZM20.1648 33.25C21.6777 33.25 22.9041 32.0327 22.9041 30.5311C22.9041 29.0295 21.6777 27.8122 20.1648 27.8122C18.6519 27.8122 17.4255 29.0295 17.4255 30.5311C17.4255 32.0327 18.6519 33.25 20.1648 33.25Z" fill="white"/>
</g>
<defs>
<clipPath id="clip0_18_1683">
<rect width="40" height="40" fill="white"/>
</clipPath>
</defs>
</svg>
