<svg width="40" height="40" viewBox="0 0 40 40" fill="none" xmlns="http://www.w3.org/2000/svg">
<path fill-rule="evenodd" clip-rule="evenodd" d="M10 4C7.79086 4 6 5.79086 6 8V34.2768C6 35.0446 6.82948 35.526 7.49614 35.1451L12.5039 32.2835C12.8113 32.1078 13.1887 32.1078 13.4961 32.2835L19.5039 35.7165C19.8113 35.8922 20.1887 35.8922 20.4961 35.7165L26.5039 32.2835C26.8113 32.1078 27.1887 32.1078 27.4961 32.2835L32.5039 35.1451C33.1705 35.526 34 35.0446 34 34.2768V8C34 5.79086 32.2091 4 30 4H10ZM10 14C10 12.8954 10.8954 12 12 12H27.5C28.6046 12 29.5 12.8954 29.5 14C29.5 15.1046 28.6046 16 27.5 16H12C10.8954 16 10 15.1046 10 14ZM12 20C10.8954 20 10 20.8954 10 22C10 23.1046 10.8954 24 12 24H19.5C20.6046 24 21.5 23.1046 21.5 22C21.5 20.8954 20.6046 20 19.5 20H12Z" fill="black"/>
</svg>
