<svg width="40" height="40" viewBox="0 0 40 40" fill="none" xmlns="http://www.w3.org/2000/svg">
<path d="M21.7588 37.8991C29.1371 37.0902 35.0503 31.3173 35.8918 24.0957C36.9963 14.6533 29.4978 6.61538 20.0983 6.51242L17.7995 6.5V2.27655C17.7995 2.04122 17.499 1.9162 17.2961 2.06328L10.3851 8.46858C10.2348 8.57889 10.2348 8.79215 10.3851 8.90246L17.2961 15.3078C17.499 15.4548 17.7995 15.3225 17.7995 15.0945V10.866H20.0983C26.7027 10.9689 31.9923 16.4697 31.5415 23.0441C31.1583 28.6993 26.4473 33.2882 20.6694 33.6485C14.5458 34.0309 9.33896 29.7509 8.40728 24.0884C8.23447 23.0368 7.29528 22.272 6.21333 22.272C4.8684 22.272 3.81651 23.4412 4.02689 24.7429C5.33424 32.8102 12.9455 38.8625 21.7588 37.8991Z" fill="black"/>
<path d="M25.6155 18.86L22.475 22.0005L25.6155 25.1408C26.1282 25.6527 26.1282 26.4839 25.6155 26.9968L24.9968 27.6155C24.4849 28.1282 23.6537 28.1282 23.1408 27.6155L20.0005 24.475L16.86 27.6155C16.3481 28.1282 15.5169 28.1282 15.0041 27.6155L14.3855 26.9968C13.8726 26.4849 13.8726 25.6537 14.3855 25.1408L17.5258 22.0005L14.3845 18.8592C13.8718 18.3473 13.8718 17.5161 14.3845 17.0032L15.0041 16.3845C15.5161 15.8718 16.3473 15.8718 16.86 16.3845L20.0005 19.5258L23.1408 16.3855C23.6527 15.8726 24.4839 15.8726 24.9968 16.3855L25.6155 17.0041C26.1282 17.5161 26.1282 18.3473 25.6155 18.86Z" fill="black"/>
</svg>
