<svg width="40" height="40" viewBox="0 0 40 40" fill="none" xmlns="http://www.w3.org/2000/svg">
<path d="M27.193 36.9712L21.0775 28.5314L26.3983 21.5116L30.039 35.6386C30.4778 37.3414 28.2311 38.404 27.193 36.9712Z" fill="black" stroke="black" stroke-width="0.899311"/>
<path d="M29.0461 14.2252L19.6723 26.5921L17.3285 23.3575C16.6881 22.4737 16.3435 21.4108 16.3435 20.3202V5.25738C16.3435 4.24124 16.0326 3.26651 15.4936 2.44959H23.1813C29.2598 2.44959 32.7109 9.39022 29.0461 14.2252Z" fill="black" stroke="black" stroke-width="0.899311"/>
<path d="M8.44966 5.10047C8.44966 3.64585 9.6244 2.46263 11.0815 2.44976L11.7099 2.51975C13.0095 2.67425 14.0518 3.87736 14.0518 5.25744V20.3203C14.0518 21.894 14.5492 23.4274 15.4728 24.7021L18.2254 28.5009L11.895 36.8525C10.7845 38.3176 8.44966 37.53 8.44966 35.6988V5.10047Z" fill="black" stroke="black" stroke-width="0.899311"/>
</svg>
