<svg width="40" height="40" viewBox="0 0 40 40" fill="none" xmlns="http://www.w3.org/2000/svg">
<path d="M33.2861 38H26.861C25.957 38 25.2466 37.289 25.2466 36.3842C25.2466 35.4794 25.957 34.7684 26.861 34.7684H33.2861C34.0933 34.7684 34.7713 34.0898 34.7713 33.2819V26.851C34.7713 25.9461 35.4816 25.2352 36.3857 25.2352C37.2897 25.2352 38 25.9461 38 26.851V33.2819C37.9677 35.8671 35.8691 38 33.2861 38ZM3.64664 14.7648C2.7426 14.7648 2.03229 14.0539 2.03229 13.149V6.71813C2.03229 4.13285 4.13094 2 6.74619 2H13.1713C14.0753 2 14.7857 2.71095 14.7857 3.6158C14.7857 4.52065 14.0753 5.2316 13.1713 5.2316H6.7139C5.90673 5.2316 5.2287 5.91023 5.2287 6.71813V13.149C5.26099 14.0539 4.51839 14.7648 3.64664 14.7648ZM36.3534 14.7648C35.4493 14.7648 34.739 14.0539 34.739 13.149V6.71813C34.739 5.91023 34.061 5.2316 33.2538 5.2316H26.8287C25.9247 5.2316 25.2143 4.52065 25.2143 3.6158C25.2143 2.71095 25.9247 2 26.8287 2H33.2538C35.8368 2 37.9677 4.10054 37.9677 6.71813V13.149C37.9677 14.0539 37.2574 14.7648 36.3534 14.7648ZM13.1713 38H6.7139C4.13094 38 2 35.8995 2 33.2819V26.851C2 25.9461 2.71031 25.2352 3.61435 25.2352C4.51839 25.2352 5.2287 25.9461 5.2287 26.851V33.2819C5.2287 34.0898 5.90673 34.7684 6.7139 34.7684H13.139C14.043 34.7684 14.7534 35.4794 14.7534 36.3842C14.7534 37.289 14.043 38 13.1713 38ZM32.2206 21.7451H7.77937C6.87534 21.7451 6.16502 21.0341 6.16502 20.1293C6.16502 19.2244 6.87534 18.5135 7.77937 18.5135H32.2206C33.1247 18.5135 33.835 19.2244 33.835 20.1293C33.835 21.0341 33.0924 21.7451 32.2206 21.7451Z" fill="black"/>
</svg>
