<svg width="40" height="40" viewBox="0 0 40 40" fill="none" xmlns="http://www.w3.org/2000/svg">
<path fill-rule="evenodd" clip-rule="evenodd" d="M7.71422 9.28571C5.82067 9.28571 4.28564 10.8207 4.28564 12.7143V34.9911C4.28564 35.7589 5.11513 36.2403 5.78178 35.8593L9.78951 33.5692C10.0969 33.3935 10.4744 33.3935 10.7818 33.5692L15.7895 36.4308C16.0969 36.6064 16.4743 36.6064 16.7818 36.4308L21.7895 33.5692C22.0969 33.3935 22.4743 33.3935 22.7818 33.5692L26.7895 35.8593C27.4562 36.2403 28.2856 35.7589 28.2856 34.9911V12.7143C28.2856 10.8207 26.7506 9.28571 24.8571 9.28571H7.71422ZM16.2856 15.2857C17.0625 15.2857 17.6922 15.9155 17.6922 16.6923V20.9121H21.7362C22.513 20.9121 23.1428 21.5418 23.1428 22.3187C23.1428 23.0955 22.513 23.7253 21.7362 23.7253H17.6922V27.5934C17.6922 28.3702 17.0625 29 16.2856 29C15.5088 29 14.879 28.3702 14.879 27.5934V23.7253H10.8351C10.0583 23.7253 9.4285 23.0955 9.4285 22.3187C9.4285 21.5418 10.0583 20.9121 10.8351 20.9121H14.879V16.6923C14.879 15.9155 15.5088 15.2857 16.2856 15.2857Z" fill="black"/>
<path fill-rule="evenodd" clip-rule="evenodd" d="M11.4285 4.99998C11.4285 4.211 12.0681 3.57141 12.857 3.57141H27.1428C31.0876 3.57141 34.2856 6.76938 34.2856 10.7143V27.8571C34.2856 28.6461 33.646 29.2857 32.857 29.2857C32.0681 29.2857 31.4285 28.6461 31.4285 27.8571V10.7143C31.4285 8.34733 29.5097 6.42855 27.1428 6.42855H12.857C12.0681 6.42855 11.4285 5.78896 11.4285 4.99998Z" fill="black"/>
</svg>
