<svg width="40" height="40" viewBox="0 0 40 40" fill="none" xmlns="http://www.w3.org/2000/svg">
<path d="M33.1348 12.6734L26.0688 20.0011L33.1348 27.3285C34.2884 28.523 34.2884 30.4625 33.1348 31.6593L31.7429 33.1027C30.591 34.2991 28.7207 34.2991 27.5667 33.1027L20.5011 25.775L13.4351 33.1027C12.2832 34.2991 10.4129 34.2991 9.2593 33.1027L7.86738 31.6593C6.7134 30.4648 6.7134 28.5252 7.86738 27.3285L14.933 20.0011L7.86522 12.6715C6.71159 11.477 6.71159 9.53746 7.86522 8.34074L9.2593 6.89726C10.4111 5.70091 12.2814 5.70091 13.4351 6.89726L20.5011 14.2269L27.5667 6.89951C28.7186 5.70278 30.5889 5.70278 31.7429 6.89951L33.1348 8.34298C34.2884 9.53746 34.2884 11.477 33.1348 12.6734Z" fill="black"/>
</svg>
