<svg width="40" height="40" viewBox="0 0 40 40" fill="none" xmlns="http://www.w3.org/2000/svg">
<path d="M20 4C11.1634 4 4 11.1634 4 20C4 28.8366 11.1634 36 20 36C28.8366 36 36 28.8366 36 20C36 11.1634 28.8366 4 20 4ZM7.98264 20C7.98264 13.363 13.363 7.98264 20 7.98264C22.6004 7.98264 25.0078 8.8088 26.9743 10.2127L10.2127 26.9744C8.8088 25.0078 7.98264 22.6005 7.98264 20ZM20 32.0174C17.4012 32.0174 14.9952 31.1923 13.0293 29.7901L29.79 13.0293C31.1923 14.9952 32.0174 17.4013 32.0174 20.0001C32.0174 26.637 26.637 32.0174 20 32.0174Z" fill="black"/>
</svg>
