<svg width="40" height="40" viewBox="0 0 40 40" fill="none" xmlns="http://www.w3.org/2000/svg">
<path fill-rule="evenodd" clip-rule="evenodd" d="M36.7434 11.025L36.7171 11.05C37.508 11.8084 38.0001 12.85 38 14V30.8334C38 33.1334 36.0315 35 33.6061 35C31.1806 35 29.2122 33.1334 29.2122 30.8334V22.5H26.5758V36H9V25H15.1716L12.5858 27.5858C11.8047 28.3668 11.8047 29.6332 12.5858 30.4142C13.3668 31.1953 14.6332 31.1953 15.4142 30.4142L21.4142 24.4142C22.1953 23.6332 22.1953 22.3668 21.4142 21.5858L15.4142 15.5858C14.6332 14.8047 13.3668 14.8047 12.5858 15.5858C11.8047 16.3668 11.8047 17.6332 12.5858 18.4142L15.1716 21H9V7.33336C9 5.49164 10.573 4 12.5152 4H23.0607C25.0028 4 26.5758 5.49164 26.5759 7.33336V20H28.3334C30.2756 20 31.8486 21.4917 31.8486 23.3334V30.8334C31.8486 31.75 32.6395 32.5 33.6062 32.5C34.5728 32.5 35.3637 31.75 35.3636 30.8333V17.8166C34.8276 18.0416 34.23 18.1666 33.6061 18.1666C31.1806 18.1666 29.2122 16.3 29.2122 14C29.2122 12.225 30.3898 10.7166 32.0419 10.1166L28.3334 6.6L30.1964 4.83336L36.7434 11.025ZM12.5152 11.6666H23.0607V7.33336H12.5152V11.6666ZM31.8486 14C31.8486 14.9166 32.6395 15.6666 33.6062 15.6666C34.5728 15.6666 35.3637 14.9166 35.3637 14C35.3637 13.0834 34.5728 12.3334 33.6062 12.3334C32.6395 12.3334 31.8486 13.0834 31.8486 14Z" fill="black"/>
<path d="M2 23C2 21.8954 2.89543 21 4 21H9V25H4C2.89543 25 2 24.1046 2 23Z" fill="black"/>
</svg>
