<svg width="40" height="40" viewBox="0 0 40 40" fill="none" xmlns="http://www.w3.org/2000/svg">
<path fill-rule="evenodd" clip-rule="evenodd" d="M21.655 4.57733C21.9094 4.87909 22.1702 5.1902 22.4355 5.51067L22.4819 5.56509C26.8755 10.724 32.8926 17.7891 32.8926 23.3195C32.8926 26.797 31.4729 29.9935 29.2222 32.2766C26.9715 34.595 23.8552 36 20.3926 36C16.93 36 13.8136 34.5598 11.563 32.2766C9.64859 30.3641 8.36595 27.8353 8 25H18.0642L15.4784 27.5858C14.6973 28.3668 14.6973 29.6332 15.4784 30.4142C16.2594 31.1953 17.5257 31.1953 18.3068 30.4142L24.3068 24.4142C25.0878 23.6332 25.0878 22.3668 24.3068 21.5858L18.3068 15.5858C17.5257 14.8047 16.2594 14.8047 15.4784 15.5858C14.6973 16.3668 14.6973 17.6332 15.4784 18.4142L18.0642 21H8.20344C9.49457 15.8853 14.5444 9.9484 18.3497 5.51067C18.6192 5.19818 18.884 4.89051 19.1422 4.58767C19.8029 3.81291 20.9985 3.79885 21.655 4.57733Z" fill="black"/>
<path d="M2 23C2 21.8954 2.76751 21 3.71429 21H8V25H3.71429C2.76751 25 2 24.1046 2 23Z" fill="black"/>
</svg>
