<svg width="40" height="40" viewBox="0 0 40 40" fill="none" xmlns="http://www.w3.org/2000/svg">
<path fill-rule="evenodd" clip-rule="evenodd" d="M8 4C9.10457 4 10 4.89543 10 6V10.2025C12.5402 7.60977 16.081 6 20 6C26.0988 6 31.2819 9.89864 33.2029 15.3335C33.5709 16.3749 33.0251 17.5176 31.9837 17.8857C30.9422 18.2538 29.7996 17.7079 29.4315 16.6665C28.0578 12.7798 24.3509 10 20 10C16.7301 10 13.8241 11.57 11.9987 14H18C19.1046 14 20 14.8954 20 16C20 17.1046 19.1046 18 18 18H8C6.89543 18 6 17.1046 6 16V6C6 4.89543 6.89543 4 8 4ZM8.01633 22.1143C9.05776 21.7462 10.2004 22.2921 10.5685 23.3335C11.9422 27.2202 15.6491 30 20 30C23.2699 30 26.1759 28.43 28.0013 26L22 26C20.8954 26 20 25.1046 20 24C20 22.8954 20.8954 22 22 22H32C32.5304 22 33.0391 22.2107 33.4142 22.5858C33.7893 22.9609 34 23.4696 34 24V34C34 35.1046 33.1046 36 32 36C30.8954 36 30 35.1046 30 34V29.7975C27.4598 32.3902 23.919 34 20 34C13.9012 34 8.71809 30.1014 6.79714 24.6665C6.42905 23.6251 6.9749 22.4824 8.01633 22.1143Z" fill="black"/>
</svg>
