<svg width="40" height="40" viewBox="0 0 40 40" fill="none" xmlns="http://www.w3.org/2000/svg">
<path d="M22.1358 35.9404C28.6242 35.3443 33.8777 30.133 34.5217 23.6493C35.2733 16.0817 29.8447 9.59456 22.689 8.62907V6.624H24.2316C24.7135 6.624 25.1041 6.23336 25.1041 5.75153V4.87247C25.1041 4.39059 24.7134 4 24.2316 4H17.7369C17.255 4 16.8645 4.39059 16.8645 4.87247V5.75153C16.8645 6.23341 17.2551 6.624 17.7369 6.624H19.1374V8.60837C16.9976 8.8732 14.9553 9.63378 13.1537 10.8508C12.3236 11.4113 12.1293 12.561 12.7518 13.3663C13.3235 14.1059 14.4038 14.2081 15.183 13.6917C16.8622 12.579 18.817 11.9914 20.8423 11.9914C27.0876 11.9914 32.0476 17.6012 30.948 24.0467C30.2133 28.3532 26.7071 31.7634 22.3847 32.3969C16.5434 33.253 11.4487 29.1488 10.6842 23.6764H11.861C12.6827 23.6764 13.1963 22.7868 12.7854 22.0751L9.76286 16.84C9.35199 16.1284 8.32485 16.1284 7.91392 16.8399L4.89076 22.0751C4.47978 22.7867 4.9934 23.6764 5.8152 23.6764H7.16694C7.92558 31.006 14.4659 36.6452 22.1358 35.9404Z" fill="black"/>
<path d="M32.3429 8.0136L34.9736 10.4452C35.3275 10.7723 35.3492 11.3243 35.022 11.6781L34.3262 12.431C33.999 12.7848 33.4471 12.8065 33.0932 12.4795L30.4625 10.0479C30.1086 9.72078 30.0869 9.16878 30.4141 8.81495L31.1099 8.06207C31.4371 7.70824 31.989 7.68654 32.3429 8.0136Z" fill="black"/>
<path d="M23.6788 15.5328C22.8295 15.1811 21.9193 15 21 15V21C21 21.5523 21.4477 22 22 22L28 22C28 21.0807 27.8189 20.1705 27.4672 19.3212C27.1154 18.4719 26.5998 17.7003 25.9497 17.0503C25.2997 16.4002 24.5281 15.8846 23.6788 15.5328Z" fill="black"/>
</svg>
