<svg width="40" height="40" viewBox="0 0 40 40" fill="none" xmlns="http://www.w3.org/2000/svg">
<path d="M17.5714 5C15.45 5 13.7143 6.73571 13.7143 8.85714H9.85714C7.73571 8.85714 6 10.5929 6 12.7143H33C33 10.5929 31.2643 8.85714 29.1429 8.85714H25.2857C25.2857 6.73571 23.55 5 21.4286 5H17.5714ZM9.85714 16.5714V35.1243C9.85714 35.5486 10.1657 35.8571 10.59 35.8571H28.4486C28.8729 35.8571 29.1814 35.5486 29.1814 35.1243V16.5714H25.3243V30.0714C25.3243 31.1514 24.4757 32 23.3957 32C22.3157 32 21.4671 31.1514 21.4671 30.0714V16.5714H17.61V30.0714C17.61 31.1514 16.7614 32 15.6814 32C14.6014 32 13.7529 31.1514 13.7529 30.0714V16.5714H9.89571H9.85714Z" fill="black"/>
</svg>
