<svg width="40" height="40" viewBox="0 0 40 40" fill="none" xmlns="http://www.w3.org/2000/svg">
<path d="M6.4 6C5.49826 6 4.63346 6.35821 3.99584 6.99584C3.35821 7.63346 3 8.49826 3 9.4V16.2C3.90174 16.2 4.76654 16.5582 5.40416 17.1958C6.04179 17.8335 6.4 18.6983 6.4 19.6C6.4 20.5017 6.04179 21.3665 5.40416 22.0042C4.76654 22.6418 3.90174 23 3 23V29.8C3 30.7017 3.35821 31.5665 3.99584 32.2042C4.63346 32.8418 5.49826 33.2 6.4 33.2H33.6C34.5017 33.2 35.3665 32.8418 36.0042 32.2042C36.6418 31.5665 37 30.7017 37 29.8V23C36.0983 23 35.2335 22.6418 34.5958 22.0042C33.9582 21.3665 33.6 20.5017 33.6 19.6C33.6 18.6983 33.9582 17.8335 34.5958 17.1958C35.2335 16.5582 36.0983 16.2 37 16.2V9.4C37 8.49826 36.6418 7.63346 36.0042 6.99584C35.3665 6.35821 34.5017 6 33.6 6H6.4ZM25.95 11.1L28.5 13.65L14.05 28.1L11.5 25.55L25.95 11.1ZM14.577 11.168C16.243 11.168 17.586 12.511 17.586 14.177C17.586 14.975 17.269 15.7404 16.7047 16.3047C16.1404 16.869 15.375 17.186 14.577 17.186C12.911 17.186 11.568 15.843 11.568 14.177C11.568 13.379 11.885 12.6136 12.4493 12.0493C13.0136 11.485 13.779 11.168 14.577 11.168ZM25.423 22.014C27.089 22.014 28.432 23.357 28.432 25.023C28.432 25.821 28.115 26.5864 27.5507 27.1507C26.9864 27.715 26.221 28.032 25.423 28.032C23.757 28.032 22.414 26.689 22.414 25.023C22.414 24.225 22.731 23.4596 23.2953 22.8953C23.8596 22.331 24.625 22.014 25.423 22.014Z" fill="black"/>
</svg>
