<svg width="40" height="40" viewBox="0 0 40 40" fill="none" xmlns="http://www.w3.org/2000/svg">
<path d="M34.3182 10.2727H7.95455C7.60494 10.2727 7.26966 10.1338 7.02245 9.88664C6.77524 9.63943 6.63636 9.30415 6.63636 8.95455C6.63636 8.60494 6.77524 8.26966 7.02245 8.02245C7.26966 7.77524 7.60494 7.63636 7.95455 7.63636H30.3636C30.7132 7.63636 31.0485 7.49748 31.2957 7.25028C31.5429 7.00307 31.6818 6.66779 31.6818 6.31818C31.6818 5.96858 31.5429 5.63329 31.2957 5.38609C31.0485 5.13888 30.7132 5 30.3636 5H7.95455C6.90573 5 5.89988 5.41664 5.15826 6.15826C4.41664 6.89988 4 7.90573 4 8.95455V30.0455C4 31.0943 4.41664 32.1001 5.15826 32.8417C5.89988 33.5834 6.90573 34 7.95455 34H34.3182C35.0174 34 35.688 33.7222 36.1824 33.2278C36.6768 32.7334 36.9545 32.0628 36.9545 31.3636V12.9091C36.9545 12.2099 36.6768 11.5393 36.1824 11.0449C35.688 10.5505 35.0174 10.2727 34.3182 10.2727ZM28.3864 23.4545C27.9953 23.4545 27.613 23.3386 27.2878 23.1213C26.9627 22.904 26.7093 22.5952 26.5596 22.2339C26.4099 21.8726 26.3708 21.4751 26.4471 21.0915C26.5234 20.708 26.7117 20.3557 26.9882 20.0791C27.2647 19.8026 27.6171 19.6143 28.0006 19.538C28.3842 19.4617 28.7817 19.5009 29.143 19.6505C29.5043 19.8002 29.8131 20.0536 30.0304 20.3788C30.2477 20.7039 30.3636 21.0862 30.3636 21.4773C30.3636 22.0017 30.1553 22.5046 29.7845 22.8754C29.4137 23.2462 28.9108 23.4545 28.3864 23.4545Z" fill="black"/>
</svg>
